<svg width="329" height="46" viewBox="0 0 329 46" fill="none" xmlns="http://www.w3.org/2000/svg">
<path fill-rule="evenodd" clip-rule="evenodd" d="M59.4836 16.8C54.3099 17.0866 50.1437 17.9668 47.5162 19.7609C44.7541 21.7522 43.0405 24.0259 42.6875 26.6712C42.4508 27.4852 42.401 35.1781 42.4029 39.6671L30.3399 46L18.1191 39.9018L18.2791 28.0187C18.1941 21.8953 19.8846 15.986 23.729 10.3425C26.398 7.17813 28.9109 3.35099 33.2269 0.83881C34.1389 0.128769 35.7255 -0.151497 38.114 0.0789337C40.3197 0.288479 42.0186 0.803452 43.3811 1.52607C36.5855 4.2834 31.1686 8.25766 27.6751 13.9263C25.5817 17.5349 24.213 21.3492 23.943 25.4731L23.7976 37.1569L27.4674 39.2437L27.6713 27.2588C28.1074 21.5984 30.0014 17.2008 32.9964 13.8703C35.1586 11.3078 38.6165 8.78948 42.6937 6.81457C44.4299 5.98825 46.5693 5.7431 48.7211 6.25C50.8229 6.76283 52.6526 7.48331 54.2394 8.38842C47.9691 9.58875 42.3281 11.9578 39.5202 14.6281C36.1511 17.9939 33.6964 21.4553 33.3185 25.1325C33.0961 26.6691 33.0669 34.3808 33.0318 39.0838L36.897 37.2295L36.8825 26.7976C37.2998 23.6043 38.8285 20.8737 41.0674 18.4341C42.349 17.0408 46.1644 14.6862 49.3191 13.6045C53.1074 12.068 56.9353 14.1694 59.4836 16.8Z" fill="#49A85E"/>
<path fill-rule="evenodd" clip-rule="evenodd" d="M1.19824 16.8C6.36971 17.0866 10.5382 17.9668 13.1655 19.7609C15.9278 21.7522 17.6414 24.0259 17.9945 26.6712C18.2311 27.4852 18.1211 35.4126 18.1189 39.9018L30.3397 46L42.4027 39.6671V28.0187C42.4879 21.8953 40.7952 15.986 36.9528 10.3425C34.2839 7.17813 31.7687 3.35099 27.4551 0.83881C26.5431 0.128769 24.9562 -0.151497 22.5679 0.0789337C20.3622 0.288479 18.6632 0.803452 17.3006 1.52607C24.0944 4.2834 29.5134 8.25766 33.0066 13.9263C35.1003 17.5349 36.4688 21.3492 36.7389 25.4731L36.8967 37.2295L33.0315 39.0838L33.0107 27.2588C32.5746 21.5984 30.6806 17.2008 27.6853 13.8703C25.5233 11.3078 22.0653 8.78948 17.9882 6.81457C16.2519 5.98825 14.1104 5.7431 11.9609 6.25C9.85895 6.76283 8.0293 7.48331 6.44251 8.38842C12.7126 9.58875 18.3538 11.9578 21.1617 14.6281C24.5307 17.9939 26.9856 21.4553 27.3635 25.1325C27.5856 26.6691 27.4321 34.5386 27.4672 39.2437L23.7974 37.1569V26.7976C23.382 23.6043 21.8534 20.8737 19.6144 18.4341C18.3329 17.0408 14.5175 14.6862 11.3628 13.6045C7.57449 12.068 3.74651 14.1694 1.19824 16.8Z" fill="#00000000"/>
<path d="M77.1555 17.1179H80.1731L75.404 22.9636L78.4313 29.1353H75.1565L72.5371 23.0829L72.549 23.0143L77.1555 17.1179ZM71.4015 29.1353H68.7783L70.8967 17.1179H73.5205L71.4015 29.1353Z" fill="#2F3B98"/>
<path d="M79.8867 29.1353L82.0058 17.1179H89.1214L88.7404 19.278H84.2308L83.7588 21.9518H87.6346L87.2536 24.1119H83.3785L82.8737 26.9752H87.5891L87.2081 29.1353H79.8867Z" fill="#2F3B98"/>
<path d="M96.9272 23.5974L100.315 17.1179H104.243L102.124 29.1353H99.6197L101.188 20.2376H101.121L97.13 27.6947H94.9699L93.6442 20.2376H93.5413L91.9725 29.1353H89.5723L91.6914 17.1179H95.7208L96.8586 23.5974H96.9272Z" fill="#2F3B98"/>
<path d="M104.933 29.1353L107.052 17.1179H114.167L113.786 19.278H109.277L108.805 21.9518H112.68L112.299 24.1119H108.424L107.92 26.9752H112.635L112.254 29.1353H104.933Z" fill="#2F3B98"/>
<path d="M118.492 20.392C118.4 21.5917 118.288 22.5178 117.922 24.5921L117.121 29.1353H114.618L116.737 17.1179H119.874L121.492 21.8489C121.89 22.9979 122.306 24.3341 122.54 25.5346H122.608C122.768 23.8554 123.061 22.1919 123.285 20.9228L123.956 17.1179H126.442L124.323 29.1353H121.254L119.508 24.0605C119.114 22.8943 118.824 21.7125 118.56 20.392H118.492Z" fill="#2F3B98"/>
<path d="M130.516 19.2775H127.533L127.914 17.1181H136.504L136.124 19.2775H133.14L131.402 29.1348H128.778L130.516 19.2775Z" fill="#2F3B98"/>
<path d="M135.823 29.1353L137.942 17.1179H145.058L144.677 19.278H140.167L139.695 21.9518H143.571L143.19 24.1119H139.315L138.81 26.9752H143.526L143.145 29.1353H135.823Z" fill="#2F3B98"/>
<path d="M149.219 22.5864H150.214C151.602 22.5864 152.154 21.9861 152.351 20.8721C152.544 19.7746 151.98 19.278 150.832 19.278H149.803L149.219 22.5864ZM151.504 17.1179C154.161 17.1179 155.492 18.129 155.048 20.6485C154.678 22.7407 153.374 23.7182 151.92 23.9919L151.908 24.0605C152.488 24.3692 152.804 24.8151 153.192 25.8261L154.442 29.1353H151.322L150.022 25.2266C149.874 24.7979 149.574 24.6607 149.024 24.6607H148.854L148.065 29.1353H145.475L147.594 17.1179H151.504Z" fill="#2F3B98"/>
<path d="M158.24 17.1179H160.863L158.744 29.1353H156.121L158.24 17.1179Z" fill="#2F3B98"/>
<path d="M165.388 24.2148H168.216L168.05 22.5349C167.88 20.8721 167.795 19.9975 167.776 18.935H167.708C167.32 19.9632 166.891 20.9407 166.193 22.4656L165.388 24.2148ZM169.914 17.1179L171.447 29.1353H168.704L168.436 26.3742H164.407L163.149 29.1353H160.509L166.262 17.1179H169.914Z" fill="#2F3B98"/>
<path d="M176.982 20.392C176.89 21.5917 176.778 22.5178 176.412 24.5921L175.611 29.1353H173.108L175.227 17.1179H178.364L179.982 21.8489C180.381 22.9979 180.796 24.3341 181.031 25.5346H181.099C181.257 23.8554 181.551 22.1919 181.775 20.9228L182.446 17.1179H184.932L182.813 29.1353H179.744L177.998 24.0605C177.604 22.8943 177.315 21.7125 177.051 20.392H176.982Z" fill="#2F3B98"/>
<path d="M192.68 17.1179H195.303L193.184 29.1353H190.561L192.68 17.1179Z" fill="#2F3B98"/>
<path d="M200.005 20.392C199.913 21.5917 199.801 22.5178 199.435 24.5921L198.634 29.1353H196.131L198.25 17.1179H201.387L203.005 21.8489C203.404 22.9979 203.819 24.3341 204.054 25.5346H204.122C204.28 23.8554 204.574 22.1919 204.798 20.9228L205.469 17.1179H207.955L205.836 29.1353H202.767L201.021 24.0605C200.627 22.8943 200.337 21.7125 200.074 20.392H200.005Z" fill="#2F3B98"/>
<path d="M209.513 17.1179H212.428L213.131 23.6317C213.244 24.7465 213.364 25.809 213.402 26.958H213.471C213.89 25.8433 214.334 24.7808 214.867 23.6146L217.864 17.1179H220.624L214.648 29.1353H211.252L209.513 17.1179Z" fill="#2F3B98"/>
<path d="M220.028 29.1353L222.147 17.1179H229.263L228.882 19.278H224.372L223.9 21.9518H227.776L227.395 24.1119H223.52L223.015 26.9752H227.731L227.35 29.1353H220.028Z" fill="#2F3B98"/>
<path d="M235.354 25.9294C235.69 24.0258 230.107 24.2838 230.774 20.4945C231.126 18.5059 233.149 16.946 235.635 16.946C237.641 16.946 238.73 17.8721 239.034 18.3859L237.063 20.323C236.835 19.9629 236.282 19.2083 235.013 19.2083C234.156 19.2083 233.591 19.6892 233.486 20.2887C233.144 22.2259 238.717 21.9343 238.042 25.7572C237.725 27.5579 235.925 29.3057 232.873 29.3057C230.557 29.3057 229.299 28.2774 228.969 27.8144L230.842 25.6543C231.266 26.1688 232.149 27.0941 233.606 27.0941C234.652 27.0941 235.242 26.5632 235.354 25.9294Z" fill="#2F3B98"/>
<path d="M242.442 19.2775H239.458L239.84 17.1181H248.429L248.049 19.2775H245.065L243.327 29.1348H240.704L242.442 19.2775Z" fill="#2F3B98"/>
<path d="M250.708 24.2148H253.537L253.37 22.5349C253.201 20.8721 253.116 19.9975 253.096 18.935H253.028C252.641 19.9632 252.211 20.9407 251.513 22.4656L250.708 24.2148ZM255.234 17.1179L256.768 29.1353H254.024L253.756 26.3742H249.727L248.469 29.1353H245.829L251.583 17.1179H255.234Z" fill="#2F3B98"/>
<path d="M264.068 25.9294C264.403 24.0258 258.821 24.2838 259.488 20.4945C259.839 18.5059 261.862 16.946 264.349 16.946C266.355 16.946 267.443 17.8721 267.748 18.3859L265.777 20.323C265.549 19.9629 264.996 19.2083 263.727 19.2083C262.87 19.2083 262.305 19.6892 262.199 20.2887C261.858 22.2259 267.431 21.9343 266.756 25.7572C266.439 27.5579 264.638 29.3057 261.586 29.3057C259.271 29.3057 258.013 28.2774 257.683 27.8144L259.556 25.6543C259.98 26.1688 260.862 27.0941 262.319 27.0941C263.366 27.0941 263.956 26.5632 264.068 25.9294Z" fill="#2F3B98"/>
<path d="M270.474 17.1179H273.097L270.978 29.1353H268.354L270.474 17.1179Z" fill="#2F3B98"/>
<path d="M281.533 16.6199L273.994 31.8599H271.851L279.389 16.6199H281.533Z" fill="#2F3B98"/>
<path d="M286.207 19.2775H284.801L284.333 21.9342H285.635C286.905 21.9342 287.517 21.2832 287.637 20.598C287.768 19.8606 287.441 19.2775 286.207 19.2775ZM287.213 25.5348C287.397 24.4887 286.592 24.0943 285.615 24.0943H283.952L283.444 26.9747H285.244C286.564 26.9747 287.092 26.2201 287.213 25.5348ZM289.886 25.4491C289.61 27.0097 288.446 29.1348 284.452 29.1348H280.474L282.592 17.1181H286.896C289.022 17.1181 290.648 17.8205 290.221 20.2379C289.982 21.5919 288.991 22.4494 288.025 22.7745L288.013 22.8431C289.138 22.9803 290.185 23.7513 289.886 25.4491Z" fill="#4AAD56"/>
<path d="M299.926 17.1179H302.943L298.174 22.9636L301.201 29.1353H297.926L295.307 23.0829L295.319 23.0143L299.926 17.1179ZM294.171 29.1353H291.548L293.667 17.1179H296.291L294.171 29.1353Z" fill="#4AAD56"/>
<path d="M307.009 19.3294L306.41 22.7236H307.268C309.017 22.7236 309.527 21.969 309.69 21.0429C309.899 19.8603 309.41 19.3294 308.072 19.3294H307.009ZM312.463 20.6835C312.067 22.9293 310.543 24.8658 307.028 24.8658H306.033L305.281 29.1353H302.657L304.776 17.1179H308.891C311.325 17.1179 312.932 18.0261 312.463 20.6835Z" fill="#4AAD56"/>
<path d="M320.315 23.5974L323.703 17.1179H327.63L325.511 29.1353H323.007L324.576 20.2376H324.508L320.518 27.6947H318.357L317.032 20.2376H316.929L315.36 29.1353H312.96L315.079 17.1179H319.108L320.246 23.5974H320.315Z" fill="#4AAD56"/>
</svg>
