<svg width="332" height="46" viewBox="0 0 332 46" fill="none" xmlns="http://www.w3.org/2000/svg">
<path fill-rule="evenodd" clip-rule="evenodd" d="M58.4836 16.8C53.3099 17.0866 49.1437 17.9668 46.5162 19.7609C43.7541 21.7522 42.0405 24.0259 41.6875 26.6712C41.4508 27.4852 41.401 35.1781 41.4029 39.6671L29.3399 46L17.1191 39.9018L17.2791 28.0187C17.1941 21.8953 18.8846 15.986 22.729 10.3425C25.398 7.17813 27.9109 3.35099 32.2269 0.83881C33.1389 0.128769 34.7255 -0.151497 37.114 0.0789337C39.3197 0.288479 41.0186 0.803452 42.3811 1.52607C35.5855 4.2834 30.1686 8.25766 26.6751 13.9263C24.5817 17.5349 23.213 21.3492 22.943 25.4731L22.7976 37.1569L26.4674 39.2437L26.6713 27.2588C27.1074 21.5984 29.0014 17.2008 31.9964 13.8703C34.1586 11.3078 37.6165 8.78948 41.6937 6.81457C43.4299 5.98825 45.5693 5.7431 47.7211 6.25C49.8229 6.76283 51.6526 7.48331 53.2394 8.38842C46.9691 9.58875 41.3281 11.9578 38.5202 14.6281C35.1511 17.9939 32.6964 21.4553 32.3185 25.1325C32.0961 26.6691 32.0669 34.3808 32.0318 39.0838L35.897 37.2295L35.8825 26.7976C36.2998 23.6043 37.8285 20.8737 40.0674 18.4341C41.349 17.0408 45.1644 14.6862 48.3191 13.6045C52.1074 12.068 55.9353 14.1694 58.4836 16.8Z" fill="#49A85E"/>
<path fill-rule="evenodd" clip-rule="evenodd" d="M0.198242 16.8C5.36971 17.0866 9.53818 17.9668 12.1655 19.7609C14.9278 21.7522 16.6414 24.0259 16.9945 26.6712C17.2311 27.4852 17.1211 35.4126 17.1189 39.9018L29.3397 46L41.4027 39.6671V28.0187C41.4879 21.8953 39.7952 15.986 35.9528 10.3425C33.2839 7.17813 30.7687 3.35099 26.4551 0.83881C25.5431 0.128769 23.9562 -0.151497 21.5679 0.0789337C19.3622 0.288479 17.6632 0.803452 16.3006 1.52607C23.0944 4.2834 28.5134 8.25766 32.0066 13.9263C34.1003 17.5349 35.4688 21.3492 35.7389 25.4731L35.8967 37.2295L32.0315 39.0838L32.0107 27.2588C31.5746 21.5984 29.6806 17.2008 26.6853 13.8703C24.5233 11.3078 21.0653 8.78948 16.9882 6.81457C15.2519 5.98825 13.1104 5.7431 10.9609 6.25C8.85895 6.76283 7.0293 7.48331 5.44251 8.38842C11.7126 9.58875 17.3538 11.9578 20.1617 14.6281C23.5307 17.9939 25.9856 21.4553 26.3635 25.1325C26.5856 26.6691 26.4321 34.5386 26.4672 39.2437L22.7974 37.1569V26.7976C22.382 23.6043 20.8534 20.8737 18.6144 18.4341C17.3329 17.0408 13.5175 14.6862 10.3628 13.6045C6.57449 12.068 2.74651 14.1694 0.198242 16.8Z" fill="#00000000"/>
<path d="M75.0315 23.3571L78.3865 16.8773H82.2536L80.1341 28.894H77.6687L79.2378 19.9972H79.1704C77.8539 22.4828 76.5371 24.9684 75.2206 27.454H73.093L71.8079 19.9972H71.7065L70.1375 28.894H67.7734L69.893 16.8773H73.8612L74.964 23.3571H75.0315Z" fill="#00000000"/>
<path d="M85.1571 16.8773H87.7405L85.6212 28.894H83.0376L85.1571 16.8773Z" fill="#00000000"/>
<path d="M92.3638 20.1515C92.2702 21.3515 92.1577 22.2773 91.7919 24.3514L90.9908 28.894H88.5254L90.6449 16.8773H93.7349L95.3151 21.6086C95.7037 22.7571 96.1096 24.0942 96.337 25.2943H96.4044C96.5656 23.6143 96.8587 21.9515 97.0826 20.683L97.7539 16.8773H100.202L98.0831 28.894H95.0604L93.3548 23.8201C92.9693 22.6544 92.6883 21.4716 92.4312 20.1515H92.3638Z" fill="#00000000"/>
<path d="M103.106 16.8773H105.69L103.57 28.894H100.987L103.106 16.8773Z" fill="#00000000"/>
<path d="M112.038 25.6887C112.374 23.7857 106.874 24.0427 107.542 20.2545C107.893 18.2661 109.89 16.706 112.339 16.706C114.315 16.706 115.384 17.6317 115.682 18.1457L113.736 20.0832C113.513 19.7229 112.97 18.9687 111.72 18.9687C110.876 18.9687 110.319 19.4488 110.213 20.0488C109.871 21.9857 115.36 21.6945 114.686 25.5169C114.368 27.3169 112.591 29.0654 109.585 29.0654C107.305 29.0654 106.068 28.0372 105.745 27.5742L107.594 25.4141C108.011 25.9286 108.877 26.8542 110.313 26.8542C111.343 26.8542 111.926 26.3231 112.038 25.6887Z" fill="#00000000"/>
<path d="M119.036 19.0373H116.098L116.479 16.8773H124.939L124.558 19.0373H121.62L119.881 28.894H117.298L119.036 19.0373Z" fill="#00000000"/>
<path d="M127.942 22.3456H128.922C130.289 22.3456 130.834 21.7455 131.031 20.6313C131.224 19.5342 130.67 19.0373 129.539 19.0373H128.526L127.942 22.3456ZM130.207 16.8773C132.824 16.8773 134.132 17.8887 133.688 20.4087C133.318 22.4999 132.032 23.4772 130.599 23.7512L130.586 23.8201C131.157 24.1288 131.467 24.574 131.845 25.5857L133.069 28.894H129.996L128.726 24.9857C128.582 24.5569 128.286 24.4198 127.745 24.4198H127.576L126.787 28.894H124.237L126.357 16.8773H130.207Z" fill="#00000000"/>
<path d="M139.878 25.037L139.198 28.894H136.615L137.295 25.037L134.749 16.8773H137.619L139.058 22.4145H139.125L142.567 16.8773H145.303L139.878 25.037Z" fill="#00000000"/>
<path d="M154.023 26.8886C155.374 26.8886 156.373 25.9113 156.896 22.9456C157.426 19.9458 156.718 18.8831 155.283 18.8831C154.017 18.8831 152.958 19.8086 152.432 22.7916C151.897 25.8256 152.588 26.8886 154.023 26.8886ZM153.487 29.0654C150.532 29.0654 148.959 27.4541 149.751 22.9627C150.522 18.5914 152.948 16.706 155.819 16.706C158.757 16.706 160.375 18.3515 159.586 22.8255C158.815 27.1968 156.374 29.0654 153.487 29.0654Z" fill="#00000000"/>
<path d="M160.659 28.894L162.779 16.8773H169.786L169.405 19.0373H164.964L164.402 22.2256H168.218L167.837 24.3856H164.021L163.226 28.894H160.659Z" fill="#00000000"/>
<path d="M176.692 16.8773H179.275L177.156 28.894H174.572L176.692 16.8773Z" fill="#00000000"/>
<path d="M183.898 20.1515C183.805 21.3515 183.692 22.2773 183.327 24.3514L182.525 28.894H180.06L182.18 16.8773H185.27L186.85 21.6086C187.239 22.7571 187.644 24.0942 187.872 25.2943H187.939C188.1 23.6143 188.394 21.9515 188.617 20.683L189.289 16.8773H191.737L189.618 28.894H186.595L184.889 23.8201C184.504 22.6544 184.223 21.4716 183.966 20.1515H183.898Z" fill="#00000000"/>
<path d="M193.273 16.8773H196.144L196.819 23.3915C196.926 24.5057 197.043 25.5686 197.077 26.7167H197.144C197.56 25.6028 198.001 24.5398 198.527 23.3744L201.497 16.8773H204.216L198.297 28.894H194.954L193.273 16.8773Z" fill="#00000000"/>
<path d="M203.598 28.894L205.717 16.8773H212.726L212.344 19.0373H207.903L207.432 21.7115H211.248L210.867 23.8716H207.051L206.546 26.734H211.189L210.809 28.894H203.598Z" fill="#00000000"/>
<path d="M218.702 25.6887C219.037 23.7857 213.538 24.0427 214.206 20.2545C214.556 18.2661 216.554 16.706 219.003 16.706C220.978 16.706 222.048 17.6317 222.345 18.1457L220.399 20.0832C220.176 19.7229 219.633 18.9687 218.384 18.9687C217.54 18.9687 216.982 19.4488 216.876 20.0488C216.535 21.9857 222.024 21.6945 221.349 25.5169C221.032 27.3169 219.254 29.0654 216.248 29.0654C213.969 29.0654 212.732 28.0372 212.408 27.5742L214.258 25.4141C214.674 25.9286 215.541 26.8542 216.976 26.8542C218.006 26.8542 218.59 26.3231 218.702 25.6887Z" fill="#00000000"/>
<path d="M225.7 19.0373H222.762L223.143 16.8773H231.603L231.222 19.0373H228.284L226.545 28.894H223.962L225.7 19.0373Z" fill="#00000000"/>
<path d="M238.193 23.3571L241.547 16.8773H245.417L243.297 28.894H240.831L242.4 19.9972H242.333C241.016 22.4828 239.698 24.9684 238.383 27.454H236.255L234.97 19.9972H234.869L233.3 28.894H230.936L233.055 16.8773H237.023L238.127 23.3571H238.193Z" fill="#00000000"/>
<path d="M246.064 28.894L248.184 16.8773H255.192L254.809 19.0373H250.37L249.898 21.7115H253.713L253.333 23.8716H249.516L249.013 26.734H253.656L253.274 28.894H246.064Z" fill="#00000000"/>
<path d="M259.443 20.1515C259.348 21.3515 259.237 22.2773 258.871 24.3514L258.069 28.894H255.605L257.725 16.8773H260.813L262.394 21.6086C262.783 22.7571 263.189 24.0942 263.417 25.2943H263.483C263.645 23.6143 263.937 21.9515 264.162 20.683L264.834 16.8773H267.282L265.162 28.894H262.14L260.433 23.8201C260.049 22.6544 259.769 21.4716 259.51 20.1515H259.443Z" fill="#00000000"/>
<path d="M271.291 19.0138H268.352L268.734 16.8538H277.192L276.812 19.0138H273.873L272.136 28.8706H269.551L271.291 19.0138Z" fill="#00000000"/>
<path d="M284.052 16.3802L276.584 31.6196H274.474L281.939 16.3802H284.052Z" fill="#00000000"/>
<path d="M289.857 18.888H288.434L287.959 21.5789H289.279C290.563 21.5789 291.183 20.9193 291.306 20.2248C291.437 19.4785 291.108 18.888 289.857 18.888ZM290.875 25.2246C291.062 24.1657 290.247 23.7664 289.258 23.7664H287.574L287.059 26.6831H288.882C290.219 26.6831 290.753 25.9193 290.875 25.2246ZM293.582 25.1379C293.303 26.7178 292.125 28.8706 288.08 28.8706H284.052L286.198 16.7005H290.556C292.708 16.7005 294.354 17.4123 293.922 19.8602C293.68 21.2317 292.677 22.0997 291.698 22.4296L291.686 22.4992C292.825 22.638 293.885 23.4192 293.582 25.1379Z" fill="#49A85E"/>
<path d="M303.75 16.7005H306.805L301.977 22.6205L305.041 28.8706H301.725L299.073 22.742L299.085 22.6725L303.75 16.7005ZM297.923 28.8706H295.267L297.413 16.7005H300.069L297.923 28.8706Z" fill="#49A85E"/>
<path d="M310.924 18.94L310.317 22.3774H311.185C312.956 22.3774 313.473 21.6136 313.638 20.6763C313.85 19.4785 313.354 18.94 312 18.94H310.924ZM316.445 20.3117C316.044 22.586 314.501 24.5478 310.942 24.5478H309.935L309.172 28.8706H306.516L308.662 16.7007H312.829C315.294 16.7007 316.92 17.6205 316.445 20.3117Z" fill="#49A85E"/>
<path d="M324.397 23.2628L327.828 16.7005H331.804L329.658 28.8706H327.123L328.712 19.8602H328.643C327.296 22.3774 325.949 24.8949 324.602 27.4123H322.415L321.073 19.8602H320.969L319.38 28.8706H316.95L319.096 16.7005H323.176L324.327 23.2628H324.397Z" fill="#49A85E"/>
</svg>
