<?xml version="1.0" standalone="no"?>
<!DOCTYPE svg PUBLIC "-//W3C//DTD SVG 1.1//EN" "http://www.w3.org/Graphics/SVG/1.1/DTD/svg11.dtd" >
<svg xmlns="http://www.w3.org/2000/svg">
<metadata>
<json>
<![CDATA[
{
	"fontFamily": "icon-web-ppid_sync",
	"majorVersion": 1,
	"minorVersion": 1,
	"version": "Version 1.1",
	"fontId": "icon-web-ppid_sync",
	"psName": "icon-web-ppid_sync",
	"subFamily": "Regular",
	"fullName": "icon-web-ppid_sync",
	"description": "Font generated by IcoMoon."
}
]]>
</json>
</metadata>
<defs>
<font id="icon-web-ppid_sync" horiz-adv-x="1024">
<font-face units-per-em="1024" ascent="960" descent="-64" />
<missing-glyph horiz-adv-x="1024" />
<glyph unicode="&#x20;" horiz-adv-x="512" d="" />
<glyph unicode="&#xe900;" glyph-name="arrow" data-tags="arrow" horiz-adv-x="1081" d="M527.14 742.532l334.351-58.955c20.52-3.618 34.219-23.183 30.601-43.701l-58.954-334.349c-3.618-20.52-23.188-34.219-43.702-30.601-20.52 3.618-34.219 23.182-30.601 43.702l43.139 244.66-543.416-380.505c-17.066-11.952-40.588-7.805-52.538 9.262s-7.802 40.59 9.264 52.543l543.421 380.503-244.665 43.141c-20.517 3.618-34.217 23.183-30.599 43.7s23.183 34.218 43.7 30.6z" />
<glyph unicode="&#xe901;" glyph-name="close" data-tags="close" horiz-adv-x="1081" d="M237.145 144.583c-20.946 20.946-20.946 54.909 0 75.856l530.963 530.962c20.946 20.946 54.903 20.946 75.85 0s20.946-54.906 0-75.852l-530.962-530.966c-20.946-20.941-54.906-20.941-75.852 0zM237.126 751.402c20.946 20.946 54.906 20.946 75.852 0l530.963-530.963c20.946-20.946 20.946-54.903 0-75.85s-54.903-20.946-75.85 0l-530.965 530.961c-20.946 20.946-20.946 54.906 0 75.852z" />
<glyph unicode="&#xe902;" glyph-name="down" data-tags="down" horiz-adv-x="1081" d="M506.383 220.433l-261.689 453.262h523.379l-261.691-453.262z" />
<glyph unicode="&#xe903;" glyph-name="download" data-tags="download" horiz-adv-x="1081" d="M28.528 391.105v-170.667c0-94.259 76.41-170.667 170.666-170.667h682.669c94.254 0 170.667 76.407 170.667 170.667v170.667h-85.333v-170.667c0-47.127-38.207-85.333-85.333-85.333h-682.669c-47.128 0-85.333 38.207-85.333 85.333v170.667h-85.333zM497.882 220.444v682.667h85.332v-682.667h-85.332zM497.882 220.444l-170.709 170.673 60.34 60.34 170.667-170.666-60.297-60.348zM693.544 451.448l-170.668-170.667 60.338-60.336 170.667 170.667-60.336 60.337z" />
<glyph unicode="&#xe904;" glyph-name="end" data-tags="end" horiz-adv-x="2267" d="M1658.368 706.599l232.741-232.739c14.285-14.282 14.285-37.437 0-51.719l-232.741-232.737c-14.277-14.285-37.435-14.285-51.719 0-14.277 14.277-14.277 37.435 0 51.717l170.313 170.308h-1740.283v73.143h1740.283l-170.313 170.308c-14.277 14.282-14.277 37.437 0 51.719 14.285 14.283 37.442 14.283 51.719 0zM2157.824-64v1024h73.143v-1024h-73.143z" />
<glyph unicode="&#xe905;" glyph-name="new-window" data-tags="new-window" horiz-adv-x="1081" d="M640.916 845.643l334.353-58.955c20.52-3.618 34.219-23.183 30.601-43.701l-58.954-334.35c-3.618-20.518-23.188-34.217-43.702-30.599-20.52 3.618-34.219 23.183-30.601 43.7l43.139 244.663-486.527-323.616c-17.066-11.952-40.588-7.805-52.538 9.262s-7.802 40.59 9.264 52.54l486.532 323.617-244.662 43.141c-20.52 3.618-34.219 23.183-30.601 43.7s23.182 34.218 43.696 30.6zM369.861 618.667h-170.667c-22.632 0-44.336-8.991-60.339-24.994s-24.994-37.708-24.994-60.34v-341.333c0-22.63 8.991-44.339 24.994-60.342s37.708-24.991 60.34-24.991h512.002c22.63 0 44.334 8.988 60.336 24.991s24.997 37.712 24.997 60.342v142.222h-85.333v-142.222h-512.002v341.333h170.667v85.333z" />
<glyph unicode="&#xe906;" glyph-name="next" data-tags="next" horiz-adv-x="1902" d="M1621.797 729.825l232.741-232.74c14.285-14.282 14.285-37.437 0-51.719l-232.741-232.739c-14.277-14.285-37.435-14.285-51.719 0-14.277 14.285-14.277 37.437 0 51.719l170.313 170.308h-1740.283v73.143h1740.283l-170.313 170.308c-14.277 14.282-14.277 37.437 0 51.72 14.285 14.282 37.442 14.282 51.719 0z" />
<glyph unicode="&#xe907;" glyph-name="play" data-tags="play" horiz-adv-x="1081" d="M824.974 419.556l-455.113-256v512l455.113-256z" />
<glyph unicode="&#xe908;" glyph-name="prev" data-tags="prev" horiz-adv-x="1975" d="M280.129 212.626l-232.739 232.739c-14.282 14.282-14.282 37.437 0 51.719l232.739 232.74c14.282 14.282 37.438 14.282 51.72 0s14.282-37.438 0-51.72l-170.308-170.308h1740.283v-73.143h-1740.283l170.308-170.308c14.282-14.282 14.282-37.435 0-51.719s-37.438-14.285-51.72 0z" />
<glyph unicode="&#xe909;" glyph-name="start" data-tags="start" horiz-adv-x="2267" d="M609.272 189.403l-232.739 232.737c-14.282 14.282-14.282 37.437 0 51.719l232.739 232.739c14.282 14.283 37.438 14.283 51.72 0s14.282-37.437 0-51.719l-170.308-170.308h1740.283v-73.143h-1740.283l170.308-170.308c14.282-14.283 14.282-37.44 0-51.717-14.282-14.285-37.438-14.285-51.72 0zM109.821 960v-1024h-73.142v1024h73.142z" />
<glyph unicode="&#xe90a;" glyph-name="view" data-tags="view" horiz-adv-x="1081" d="M540.528 576c-33.947 0-66.505-13.486-90.51-37.49s-37.49-56.562-37.49-90.51c0-33.948 13.486-66.503 37.49-90.51 24.005-24.001 56.562-37.49 90.51-37.49s66.505 13.488 90.512 37.49c24.001 24.007 37.49 56.562 37.49 90.51s-13.488 66.505-37.49 90.51c-24.007 24.005-56.565 37.49-90.512 37.49zM540.528 234.667c-56.579 0-110.841 22.477-150.849 62.481-40.008 40.010-62.484 94.273-62.484 150.852s22.476 110.842 62.484 150.849c40.008 40.008 94.27 62.484 150.849 62.484s110.845-22.476 150.849-62.484c40.010-40.008 62.487-94.27 62.487-150.849s-22.477-110.842-62.487-150.852c-40.004-40.004-94.271-62.481-150.849-62.481zM540.528 768c-213.333 0-395.52-132.693-469.333-320 73.813-187.307 256-320 469.333-320 213.336 0 395.522 132.693 469.336 320-73.813 187.307-256 320-469.336 320z" />
<glyph unicode="&#xe90b;" glyph-name="document" data-tags="document" horiz-adv-x="1056" d="M896.048 672v-608c0-33.949-13.488-66.506-37.491-90.509-24.006-24.006-56.563-37.491-90.509-37.491h-512.001c-33.948 0-66.505 13.485-90.509 37.491-24.005 24.003-37.491 56.56-37.491 90.509v768c0 33.948 13.486 66.505 37.491 90.51s56.562 37.49 90.509 37.49h352.001l288-288zM704.048 672c-25.462 0-49.878 10.114-67.885 28.118-18.003 18.004-28.115 42.421-28.115 67.882v128h-352.001c-16.974 0-33.252-6.743-45.255-18.745s-18.745-28.281-18.745-45.255v-768c0-16.973 6.743-33.251 18.745-45.254s28.281-18.746 45.255-18.746h512.001c16.973 0 33.251 6.742 45.254 18.746s18.746 28.282 18.746 45.254v608h-128zM288.047 160c0 8.486 3.372 16.627 9.373 22.627s14.14 9.373 22.628 9.373h192c8.486 0 16.624-3.373 22.627-9.373 6-6 9.373-14.141 9.373-22.627s-3.373-16.627-9.373-22.627c-6.003-6-14.141-9.373-22.627-9.373h-192c-8.488 0-16.628 3.373-22.628 9.373s-9.373 14.141-9.373 22.627zM288.047 288c0 8.486 3.372 16.627 9.373 22.627s14.14 9.373 22.628 9.373h384c8.486 0 16.624-3.373 22.627-9.373 6-6 9.373-14.141 9.373-22.627s-3.373-16.627-9.373-22.627c-6.003-6-14.141-9.373-22.627-9.373h-384c-8.488 0-16.628 3.373-22.628 9.373s-9.373 14.141-9.373 22.627zM392.944 525.312l85.12-56.704 118.656 118.72c2.374 2.381 5.44 3.955 8.762 4.496 3.318 0.538 6.726 0.019 9.734-1.488l120.832-62.336v-112c0-8.486-3.373-16.627-9.373-22.627-6.003-6-14.141-9.373-22.627-9.373h-384c-8.488 0-16.628 3.373-22.628 9.373s-9.373 14.141-9.373 22.627v32c0 0 98.561 81.536 104.897 77.312zM400.048 576c12.73 0 24.938 5.056 33.939 14.058s14.061 21.213 14.061 33.942c0 12.73-5.059 24.94-14.061 33.941s-21.21 14.059-33.939 14.059c-12.733 0-24.941-5.057-33.942-14.059s-14.058-21.212-14.058-33.941c0-12.73 5.056-24.941 14.058-33.942s21.21-14.058 33.942-14.058z" />
<glyph unicode="&#xe90c;" glyph-name="general" data-tags="general" horiz-adv-x="1056" d="M544.048 544c0 8.486-3.373 16.627-9.373 22.627-6.003 6-14.141 9.373-22.627 9.373-8.49 0-16.627-3.373-22.627-9.373-6.003-6-9.373-14.141-9.373-22.627v-242.752l-73.344 73.408c-2.976 2.976-6.509 5.334-10.397 6.944-3.885 1.613-8.051 2.442-12.259 2.442s-8.374-0.829-12.262-2.442c-3.888-1.61-7.421-3.968-10.394-6.944-2.976-2.976-5.338-6.509-6.947-10.394-1.61-3.888-2.438-8.054-2.438-12.262s0.829-8.374 2.438-12.262c1.61-3.885 3.971-7.418 6.947-10.394l128-128c2.973-2.979 6.502-5.344 10.39-6.957s8.054-2.445 12.266-2.445c4.208 0 8.374 0.832 12.262 2.445s7.421 3.978 10.394 6.957l128 128c2.973 2.976 5.334 6.509 6.944 10.394 1.61 3.888 2.438 8.054 2.438 12.262s-0.829 8.374-2.438 12.262c-1.61 3.885-3.971 7.418-6.944 10.394-2.976 2.976-6.509 5.334-10.397 6.944-3.885 1.613-8.051 2.442-12.259 2.442s-8.374-0.829-12.262-2.442c-3.888-1.61-7.421-3.968-10.394-6.944l-73.344-73.408v242.752zM896.048 64v608l-288 288h-352.001c-33.948 0-66.505-13.486-90.509-37.49s-37.491-56.562-37.491-90.51v-768c0-33.949 13.486-66.506 37.491-90.509 24.004-24.006 56.562-37.491 90.509-37.491h512.001c33.946 0 66.502 13.485 90.509 37.491 24.003 24.003 37.491 56.56 37.491 90.509zM608.048 768c0-25.461 10.112-49.879 28.115-67.882 18.006-18.004 42.422-28.118 67.885-28.118h128v-608c0-16.973-6.742-33.251-18.746-45.254s-28.282-18.746-45.254-18.746h-512.001c-16.974 0-33.252 6.742-45.255 18.746s-18.745 28.282-18.745 45.254v768c0 16.974 6.743 33.252 18.745 45.255s28.281 18.745 45.255 18.745h352.001v-128z" />
<glyph unicode="&#xe90d;" glyph-name="image" data-tags="image" horiz-adv-x="1056" d="M416.176 512c12.605 0 25.088 2.483 36.736 7.309 11.648 4.822 22.23 11.894 31.146 20.81s15.984 19.498 20.81 31.142c4.826 11.648 7.309 24.131 7.309 36.739s-2.483 25.091-7.309 36.738c-4.826 11.647-11.894 22.23-20.81 31.145s-19.498 15.986-31.146 20.81c-11.648 4.824-24.131 7.308-36.736 7.308-25.462 0-49.878-10.114-67.885-28.118-18.003-18.004-28.115-42.423-28.115-67.882s10.112-49.878 28.115-67.882c18.006-18.003 42.422-28.118 67.885-28.118zM896.048 64c0-33.949-13.488-66.506-37.491-90.509-24.006-24.006-56.563-37.491-90.509-37.491h-512.001c-33.948 0-66.505 13.485-90.509 37.491-24.005 24.003-37.491 56.56-37.491 90.509v768c0 33.948 13.486 66.505 37.491 90.51s56.562 37.49 90.509 37.49h352.001l288-288v-608zM256.047 896c-16.974 0-33.252-6.743-45.255-18.745s-18.745-28.281-18.745-45.255v-640l142.337 142.336c5.043 5.034 11.622 8.237 18.694 9.107s14.23-0.646 20.346-4.307l138.624-83.136 138.048 193.28c2.701 3.776 6.192 6.922 10.23 9.216 4.038 2.291 8.528 3.677 13.155 4.061s9.283-0.243 13.645-1.84c4.362-1.597 8.323-4.125 11.61-7.405l133.312-133.312v352h-128c-25.462 0-49.878 10.114-67.885 28.118-18.003 18.004-28.115 42.421-28.115 67.882v128h-352.001z" />
<glyph unicode="&#xe90e;" glyph-name="pdf" data-tags="pdf" horiz-adv-x="1056" d="M896.048 64v608l-288 288h-352.001c-33.948 0-66.505-13.486-90.509-37.49s-37.491-56.562-37.491-90.51v-768c0-33.949 13.486-66.506 37.491-90.509 24.004-24.006 56.562-37.491 90.509-37.491h512.001c33.946 0 66.502 13.485 90.509 37.491 24.003 24.003 37.491 56.56 37.491 90.509zM608.048 768c0-25.461 10.112-49.879 28.115-67.882 18.006-18.004 42.422-28.118 67.885-28.118h128v-608c0-16.973-6.742-33.251-18.746-45.254s-28.282-18.746-45.254-18.746h-512.001c-16.974 0-33.252 6.742-45.255 18.746s-18.745 28.282-18.745 45.254v768c0 16.974 6.743 33.252 18.745 45.255s28.281 18.745 45.255 18.745h352.001v-128zM294.639 58.432c-12.474 4.989-22.524 14.627-28.032 26.88-12.48 24.832-8.32 49.664 5.12 70.528 12.672 19.648 33.664 36.352 57.409 50.368 30.074 17.059 61.866 30.896 94.848 41.28 25.61 46.042 48.31 93.645 67.968 142.528-11.754 26.704-20.966 54.451-27.52 82.88-5.504 25.6-7.616 50.944-2.944 72.704 4.8 22.656 17.536 43.008 41.6 52.672 12.288 4.928 25.6 7.68 38.528 4.928 6.502-1.386 12.614-4.198 17.894-8.24 5.28-4.038 9.597-9.206 12.634-15.12 5.632-10.496 7.68-22.784 8.128-34.432 0.448-12.032-0.768-25.344-3.008-39.296-5.376-32.64-17.28-72.576-33.28-114.816 17.654-37.76 38.646-73.872 62.72-107.904 28.486 2.25 57.136 1.178 85.376-3.2 23.296-4.224 46.976-12.48 61.44-29.76 7.68-9.216 12.352-20.48 12.8-33.152 0.448-12.288-3.008-24.448-8.832-36.032-5.046-10.736-12.867-19.926-22.656-26.624-9.677-6.31-21.101-9.405-32.64-8.832-21.184 0.896-41.856 12.544-59.712 26.688-21.715 17.952-41.277 38.355-58.304 60.8-43.28-4.912-86.048-13.606-127.808-25.984-19.126-33.917-40.957-66.237-65.28-96.64-18.688-22.4-38.976-41.984-59.328-50.368-11.696-5.29-24.958-5.952-37.121-1.856zM382.896 180.096c-10.624-4.864-20.48-9.984-29.376-15.232-20.992-12.416-34.625-24.512-41.409-35.008-6.016-9.28-6.144-16-2.56-23.104 0.64-1.408 1.28-2.304 1.664-2.816 0.764 0.205 1.512 0.461 2.24 0.768 8.769 3.584 22.721 15.040 40.641 36.608 10.192 12.477 19.802 25.421 28.8 38.784zM487.856 265.216c21.37 4.989 42.934 9.107 64.64 12.352-11.654 17.834-22.544 36.154-32.64 54.912-10.038-22.694-20.71-45.104-32-67.2v-0.064zM644.4 236.416c9.6-10.432 18.944-19.2 27.84-26.24 15.36-12.16 26.048-16.192 31.872-16.384 1.558-0.205 3.139 0.134 4.48 0.96 2.662 2.102 4.733 4.858 6.016 8 2.275 3.898 3.571 8.291 3.776 12.8-0.038 1.504-0.63 2.941-1.664 4.032-3.328 3.968-12.8 9.728-33.152 13.376-12.947 2.166-26.045 3.299-39.168 3.392v0.064zM517.040 460.8c5.386 17.376 9.661 35.075 12.8 52.992 1.984 12.032 2.752 21.952 2.432 29.76 0.016 4.307-0.675 8.589-2.048 12.672-3.203-0.397-6.33-1.258-9.28-2.56-5.568-2.24-10.112-6.784-12.544-18.112-2.56-12.288-1.92-30.016 2.944-52.608 1.536-7.104 3.456-14.528 5.76-22.144h-0.064z" />
<glyph unicode="&#xe90f;" glyph-name="presentation" data-tags="presentation" horiz-adv-x="1056" d="M544.048 576c0 8.486-3.373 16.627-9.373 22.627-6.003 6-14.141 9.373-22.627 9.373-8.49 0-16.627-3.373-22.627-9.373-6.003-6-9.373-14.141-9.373-22.627h-128c-25.462 0-49.88-10.115-67.884-28.118s-28.118-42.422-28.118-67.882v-128c0-25.462 10.114-49.878 28.118-67.882s42.421-28.118 67.884-28.118h30.272l-28.608-85.888c-1.517-4.029-2.202-8.323-2.019-12.624s1.229-8.518 3.082-12.406c1.853-3.885 4.467-7.357 7.693-10.208s6.992-5.021 11.075-6.384c4.083-1.36 8.4-1.885 12.691-1.539s8.467 1.555 12.282 3.552c3.811 2 7.184 4.746 9.91 8.077s4.752 7.178 5.958 11.309l35.392 106.112h30.272v-64c0-8.486 3.37-16.627 9.373-22.627 6-6 14.138-9.373 22.627-9.373 8.486 0 16.624 3.373 22.627 9.373 6 6 9.373 14.141 9.373 22.627v64h30.272l35.392-106.112c1.203-4.131 3.232-7.978 5.958-11.309s6.096-6.077 9.91-8.077c3.811-1.997 7.987-3.206 12.278-3.552s8.608 0.179 12.691 1.539c4.083 1.363 7.85 3.533 11.075 6.384s5.843 6.323 7.693 10.208c1.853 3.888 2.899 8.106 3.085 12.406 0.182 4.301-0.506 8.595-2.019 12.624l-28.608 85.888h30.272c25.459 0 49.878 10.115 67.882 28.118s28.118 42.419 28.118 67.882v128c0 25.459-10.115 49.878-28.118 67.882s-42.422 28.118-67.882 28.118h-128zM320.048 480c0 8.486 3.37 16.627 9.373 22.627 6 6 14.138 9.373 22.627 9.373h320c8.486 0 16.624-3.373 22.627-9.373 6-6 9.373-14.141 9.373-22.627v-128c0-8.486-3.373-16.627-9.373-22.627-6.003-6-14.141-9.373-22.627-9.373h-320c-8.49 0-16.627 3.373-22.627 9.373-6.003 6-9.373 14.141-9.373 22.627v128zM896.048 64v608l-288 288h-352.001c-33.948 0-66.505-13.486-90.509-37.49s-37.491-56.562-37.491-90.51v-768c0-33.949 13.486-66.506 37.491-90.509 24.004-24.006 56.562-37.491 90.509-37.491h512.001c33.946 0 66.502 13.485 90.509 37.491 24.003 24.003 37.491 56.56 37.491 90.509zM608.048 768c0-25.461 10.112-49.879 28.115-67.882 18.006-18.004 42.422-28.118 67.885-28.118h128v-608c0-16.973-6.742-33.251-18.746-45.254s-28.282-18.746-45.254-18.746h-512.001c-16.974 0-33.252 6.742-45.255 18.746s-18.745 28.282-18.745 45.254v768c0 16.974 6.743 33.252 18.745 45.255s28.281 18.745 45.255 18.745h352.001v-128z" />
<glyph unicode="&#xe910;" glyph-name="spreadsheet" data-tags="spreadsheet" horiz-adv-x="1056" d="M896.048 64v608l-288 288h-352.001c-33.948 0-66.505-13.486-90.509-37.49s-37.491-56.562-37.491-90.51v-768c0-33.949 13.486-66.506 37.491-90.509 24.004-24.006 56.562-37.491 90.509-37.491h512.001c33.946 0 66.502 13.485 90.509 37.491 24.003 24.003 37.491 56.56 37.491 90.509zM608.048 768c0-25.461 10.112-49.879 28.115-67.882 18.006-18.004 42.422-28.118 67.885-28.118h128v-288h-640.001v448c0 16.974 6.743 33.252 18.745 45.255s28.281 18.745 45.255 18.745h352.001v-128zM192.047 192v128h128.001v-128h-128.001zM192.047 128h128.001v-128h-64.001c-16.974 0-33.252 6.742-45.255 18.746s-18.745 28.282-18.745 45.254v64zM384.048 0v128h192v-128h-192zM640.048 0v128h192v-64c0-16.973-6.742-33.251-18.746-45.254s-28.282-18.746-45.254-18.746h-128zM832.048 192h-192v128h192v-128zM384.048 192v128h192v-128h-192z" />
<glyph unicode="&#xe911;" glyph-name="text" data-tags="text" horiz-adv-x="1056" d="M352.048 512c-8.49 0-16.627-3.373-22.627-9.373-6.003-6-9.373-14.141-9.373-22.627s3.37-16.627 9.373-22.627c6-6 14.138-9.373 22.627-9.373h320c8.486 0 16.624 3.373 22.627 9.373 6 6 9.373 14.141 9.373 22.627s-3.373 16.627-9.373 22.627c-6.003 6-14.141 9.373-22.627 9.373h-320zM320.048 352c0 8.486 3.37 16.627 9.373 22.627 6 6 14.138 9.373 22.627 9.373h320c8.486 0 16.624-3.373 22.627-9.373 6-6 9.373-14.141 9.373-22.627s-3.373-16.627-9.373-22.627c-6.003-6-14.141-9.373-22.627-9.373h-320c-8.49 0-16.627 3.373-22.627 9.373-6.003 6-9.373 14.141-9.373 22.627zM320.048 224c0 8.486 3.37 16.627 9.373 22.627 6 6 14.138 9.373 22.627 9.373h128c8.486 0 16.624-3.373 22.627-9.373 6-6 9.373-14.141 9.373-22.627s-3.373-16.627-9.373-22.627c-6.003-6-14.141-9.373-22.627-9.373h-128c-8.49 0-16.627 3.373-22.627 9.373-6.003 6-9.373 14.141-9.373 22.627zM608.048 960h-352.001c-33.948 0-66.505-13.486-90.509-37.49s-37.491-56.562-37.491-90.51v-768c0-33.949 13.486-66.506 37.491-90.509 24.004-24.006 56.562-37.491 90.509-37.491h512.001c33.946 0 66.502 13.485 90.509 37.491 24.003 24.003 37.491 56.56 37.491 90.509v608l-288 288zM608.048 896v-128c0-25.461 10.112-49.879 28.115-67.882 18.006-18.004 42.422-28.118 67.885-28.118h128v-608c0-16.973-6.742-33.251-18.746-45.254s-28.282-18.746-45.254-18.746h-512.001c-16.974 0-33.252 6.742-45.255 18.746s-18.745 28.282-18.745 45.254v768c0 16.974 6.743 33.252 18.745 45.255s28.281 18.745 45.255 18.745h352.001z" />
<glyph unicode="&#xe912;" glyph-name="zip" data-tags="zip" horiz-adv-x="1056" d="M320.048 480c0 16.973 6.742 33.251 18.746 45.254 12 12.003 28.278 18.746 45.254 18.746h64c16.973 0 33.251-6.742 45.254-18.746s18.746-28.282 18.746-45.254v-60.032l25.6-102.336c3.187-12.803 2.342-26.282-2.422-38.586-4.768-12.304-13.219-22.835-24.202-30.15l-59.52-39.68c-10.518-7.018-22.877-10.762-35.52-10.762s-25.005 3.744-35.52 10.762l-59.456 39.68c-10.972 7.325-19.412 17.859-24.166 30.163s-5.591 25.776-2.395 38.573l25.601 102.336v60.032zM448.048 480h-64v-60.032c-0.003-5.242-0.646-10.467-1.92-15.552l-25.6-102.272 59.52-39.68 59.456 39.68-25.6 102.272c-1.254 5.088-1.878 10.31-1.856 15.552v60.032zM896.048 672v-608c0-33.949-13.488-66.506-37.491-90.509-24.006-24.006-56.563-37.491-90.509-37.491h-512.001c-33.948 0-66.505 13.485-90.509 37.491-24.005 24.003-37.491 56.56-37.491 90.509v768c0 33.948 13.486 66.505 37.491 90.51s56.562 37.49 90.509 37.49h352.001l288-288zM704.048 672c-25.462 0-49.878 10.114-67.885 28.118-18.003 18.004-28.115 42.421-28.115 67.882v128h-128v-64h-64v-64h64v-64h-64v-64h64v-64h-96v64h-64v64h64v64h-64v64h64v64h-128.001c-16.974 0-33.252-6.743-45.255-18.745s-18.745-28.281-18.745-45.255v-768c0-16.973 6.743-33.251 18.745-45.254s28.281-18.746 45.255-18.746h512.001c16.973 0 33.251 6.742 45.254 18.746s18.746 28.282 18.746 45.254v608h-128z" />
<glyph unicode="&#xe913;" glyph-name="antenna" data-tags="antenna" horiz-adv-x="1056" d="M366.704 897.748c8.186 10.573 9.139 25.603 1.312 37.343-9.802 14.705-29.67 18.678-44.374 8.875l17.747-26.624c-17.747 26.624-17.798 26.59-17.798 26.59l-0.058-0.038-0.467-0.317c-0.253-0.174-0.566-0.394-0.938-0.658-0.742-0.528-1.715-1.236-2.881-2.125-2.331-1.776-5.46-4.286-9.116-7.537-7.288-6.479-16.826-16.032-26.34-28.717-19.1-25.467-38.4-64.037-38.4-115.2s19.3-89.733 38.4-115.2c9.514-12.685 19.052-22.239 26.34-28.717 3.657-3.251 6.785-5.759 9.116-7.535 1.165-0.89 2.138-1.6 2.881-2.125 0.371-0.266 0.685-0.483 0.938-0.659l0.336-0.227 0.131-0.090 0.109-0.074c14.704-9.802 34.573-5.827 44.374 8.876 9.763 14.643 5.856 34.411-8.698 44.257l-0.102 0.072c-0.195 0.139-0.598 0.431-1.181 0.875-1.171 0.891-3.040 2.38-5.386 4.463-4.71 4.188-11.174 10.635-17.658 19.283-12.902 17.2-25.601 42.629-25.601 76.8s12.699 59.6 25.601 76.8c6.483 8.648 12.947 15.095 17.658 19.283 2.346 2.083 4.214 3.572 5.386 4.463 0.582 0.444 0.995 0.746 1.19 0.885l0.099 0.067c2.886 1.952 5.354 4.294 7.379 6.909zM700.474 943.966c-14.704 9.803-34.573 5.83-44.374-8.875-9.763-14.643-5.862-34.406 8.688-44.252l0.112-0.077c0.195-0.139 0.598-0.431 1.181-0.876 1.171-0.891 3.040-2.38 5.386-4.463 4.71-4.188 11.171-10.635 17.658-19.283 12.899-17.2 25.6-42.629 25.6-76.8s-12.701-59.6-25.6-76.8c-6.486-8.648-12.947-15.095-17.658-19.283-2.346-2.083-4.214-3.573-5.386-4.463-0.582-0.444-0.986-0.736-1.181-0.875l-0.112-0.078c-14.55-9.846-18.451-29.609-8.688-44.251 9.802-14.704 29.67-18.678 44.374-8.876l-17.75 26.627c17.75-26.627 17.802-26.592 17.802-26.592l0.058 0.038 0.131 0.090 0.336 0.227c0.253 0.176 0.566 0.394 0.938 0.659 0.742 0.525 1.712 1.235 2.88 2.125 2.33 1.776 5.459 4.285 9.117 7.535 7.286 6.478 16.826 16.032 26.339 28.717 19.101 25.467 38.4 64.037 38.4 115.2s-19.299 89.733-38.4 115.2c-9.514 12.685-19.053 22.238-26.339 28.717-3.658 3.25-6.787 5.761-9.117 7.537-1.168 0.889-2.138 1.597-2.88 2.125-0.371 0.264-0.685 0.483-0.938 0.658l-0.467 0.317-0.109 0.072zM459.261 736.543c4.179-4.179 8.8-7.811 13.757-10.851l-98.262-353.747c-0.138-0.454-0.266-0.915-0.384-1.382l-58.88-211.949c-0.139-0.458-0.267-0.918-0.385-1.386l-47.215-169.99c-4.73-17.030 5.24-34.669 22.269-39.398s34.666 5.242 39.395 22.269l40.896 147.232h283.213l40.893-147.232c4.73-17.027 22.368-26.998 39.398-22.269 17.027 4.73 26.998 22.368 22.269 39.398l-47.216 169.99c-0.118 0.467-0.246 0.928-0.384 1.386l-58.88 211.949c-0.118 0.467-0.246 0.928-0.384 1.382l-98.262 353.747c4.957 3.040 9.578 6.672 13.757 10.851 14.003 14.003 21.869 32.995 21.869 52.797s-7.866 38.795-21.869 52.797c-14.003 14.003-32.995 21.869-52.797 21.869s-38.794-7.867-52.797-21.869c-14.003-14.003-21.869-32.994-21.869-52.797s7.866-38.795 21.869-52.797zM576.624 394.675l-64.566 232.435-64.566-232.435h129.133zM429.712 330.675l-41.485-149.334h247.661l-41.485 149.334h-164.691z" />
<glyph unicode="&#xe914;" glyph-name="beach" data-tags="beach" horiz-adv-x="1056" d="M640.042 168.966c90.88 14.080 192 23.040 298.666 23.040v-170.669h-725.332c0 27.734 136.532 91.309 341.332 132.269v277.331c-35.84-10.666-66.131-34.56-85.331-66.131-13.235 22.141-31.984 40.47-54.419 53.197s-47.789 19.418-73.581 19.418c-25.795 0-51.148-6.691-73.583-19.418s-41.185-31.056-54.418-53.197c1.28 152.746 149.332 278.186 341.332 294.826v1.707c0 11.316 4.496 22.168 12.499 30.17 8 8.002 18.851 12.497 30.17 12.497 11.315 0 22.166-4.495 30.17-12.497 8-8.002 12.496-18.854 12.496-30.17v-1.707c192-16.64 339.626-142.080 341.334-294.826-13.235 22.141-31.984 40.47-54.419 53.197s-47.789 19.418-73.581 19.418c-25.795 0-51.149-6.691-73.584-19.418s-41.184-31.056-54.416-53.197c-19.2 31.571-49.494 55.466-85.334 66.56v-262.4zM298.708 874.672c0-28.015-5.518-55.756-16.239-81.639s-26.435-49.4-46.245-69.21c-19.81-19.81-43.327-35.524-69.21-46.245s-53.624-16.239-81.639-16.239v213.333h213.333z" />
<glyph unicode="&#xe915;" glyph-name="bridge" data-tags="bridge" horiz-adv-x="1056" d="M298.719 362.662v131.84c-30.72 14.080-59.307 31.146-85.333 51.2v-183.040h85.333zM213.385 191.994h-85.333v85.334h-85.333v85.334h85.333v298.666h85.333v-61.014c76.8-66.986 182.186-109.651 298.666-109.651s221.869 42.666 298.669 109.651v61.014h85.331v-298.666h85.334v-85.334h-85.334v-85.334h-85.331v85.334h-597.335v-85.334zM725.386 494.502v-131.84h85.334v183.040c-26.029-20.054-54.614-37.12-85.334-51.2zM682.72 362.662v114.346c-27.309-9.814-55.894-17.066-85.334-22.186v-92.16h85.334zM554.72 362.662v87.040l-42.669-1.709-42.666 1.709v-87.040h85.334zM426.72 362.662v92.16c-29.44 5.12-58.029 12.371-85.334 22.186v-114.346h85.334z" />
<glyph unicode="&#xe916;" glyph-name="bus-electric" data-tags="bus-electric" horiz-adv-x="1056" d="M768.051 618.666h-511.999v170.668h511.999zM704.051 362.666c-34.131 0-64 29.869-64 64 0 34.134 29.869 64 64 64 34.134 0 64-29.866 64-64 0-34.131-29.866-64-64-64zM320.051 362.666c-34.132 0-63.999 29.869-63.999 64 0 34.134 29.867 64 63.999 64 34.134 0 64-29.866 64-64 0-34.131-29.866-64-64-64zM170.719 405.334c0-38.4 17.067-72.534 42.667-93.869v-76.8c0-25.6 17.067-42.666 42.667-42.666h42.667c25.601 0 42.667 17.066 42.667 42.666v42.669h341.334v-42.669c0-25.6 17.066-42.666 42.666-42.666h42.666c25.6 0 42.669 17.066 42.669 42.666v76.8c25.6 21.334 42.666 55.469 42.666 93.869v383.999c0 149.333-153.6 170.667-341.334 170.667-187.731 0-341.332-21.333-341.332-170.667v-383.999zM298.719 64h170.667v85.334l256-128h-170.666v-85.334l-256.001 128z" />
<glyph unicode="&#xe917;" glyph-name="car-electric" data-tags="car-electric" horiz-adv-x="1056" d="M807.299 874.661c-8.531 24.747-32.426 42.667-60.586 42.667h-469.333c-28.16 0-51.627-17.92-60.587-42.667l-88.747-255.999v-341.334c0-23.466 19.2-42.666 42.667-42.666h42.667c23.467 0 42.667 19.2 42.667 42.666v42.666h512.001v-42.666c0-23.466 19.2-42.666 42.666-42.666h42.666c23.469 0 42.669 19.2 42.669 42.666v341.334l-88.749 255.999zM277.38 447.994c-35.413 0-64 28.589-64 64 0 35.414 28.587 64 64 64s63.999-28.586 63.999-64c0-35.411-28.586-64-63.999-64zM746.714 447.994c-35.414 0-64 28.589-64 64 0 35.414 28.586 64 64 64s64-28.586 64-64c0-35.411-28.586-64-64-64zM213.38 661.328l64 192h469.333l64-192h-597.333zM298.714 106.662h170.666v85.331l256-128h-170.666v-85.331l-256 128z" />
<glyph unicode="&#xe918;" glyph-name="compost" data-tags="compost" horiz-adv-x="1056" d="M807.299 362.662c-5.878-40.742-20.138-79.821-41.872-114.774-21.738-34.957-50.483-65.027-84.419-88.32-8.534 35.414-61.014 64.426-129.709 72.534 7.254 50.771 22.189 98.131 32.429 125.44 16.211-10.24 34.986-16.214 56.32-16.214 151.466 0 128 256 128 256s-21.334-42.666-85.334-42.666h-42.666c-18.979 0.003-37.616-5.053-53.99-14.656-16.371-9.6-29.885-23.395-39.146-39.962s-13.936-35.302-13.539-54.278c0.397-18.973 5.85-37.501 15.795-53.664 28.16 29.44 58.451 55.891 90.88 77.226-56.32-56.746-99.414-128-128-196.266-26.88 52.48-60.589 92.586-85.334 110.931 20.054-8.531 38.826-21.331 56.746-34.131 4.694 10.24 7.254 21.76 7.254 34.131-2.134 116.48-192 106.669-192 106.669 13.227-17.92 21.334-40.534 21.334-64v-42.669c0-46.931 38.4-85.331 85.331-85.331 21.334 0 40.534 7.68 55.469 21.331 9.811-26.88 17.066-57.6 20.906-87.040-73.386-6.4-129.706-36.266-138.666-73.811-78.081 54.186-129.708 144.211-129.708 246.186 0 164.694 133.973 298.667 298.668 298.667v-128.001l213.331 170.668-213.331 170.667v-128c-101.843 0-199.516-40.457-271.53-112.471-72.014-72.016-112.471-169.686-112.471-271.529s40.457-199.514 112.471-271.53c72.014-72.013 169.687-112.47 271.53-112.47 197.546 0 360.106 149.334 381.44 341.334h-86.189z" />
<glyph unicode="&#xe919;" glyph-name="construction" data-tags="construction" horiz-adv-x="1056" d="M928.048 832h-64v51.184c0 24.656-18.528 44.816-41.12 44.816h-205.824c-22.528 0-41.056-20.16-41.056-44.816v-51.184h-384.945l-95.056-192h66v-128h-10.688l-53.312-64 53.312-64h11.68v-34.368c0-8.688 6.704-15.712 15.008-15.712 24.816 0 45.008-21.184 45.008-47.216s-20.192-47.216-45.008-47.216c-24.816 0-45.008 21.184-45.008 47.216 0 8.688-6.72 15.712-15.008 15.712-8.304 0-15.008-7.024-15.008-15.712 0.032-43.424 33.664-78.704 75.024-78.704 41.344 0 75.008 35.28 75.008 78.688 0 38-25.808 69.808-60 77.088v20.224h11.664l53.328 64-53.328 64h-10.672v128h382.001v-115.184c0-21.248 13.776-39.056 32-43.632v-513.184h42v96l140-48-140-48h182v513.2c18.24 4.56 32 22.368 32 43.616v115.184h64v48h-33.248l33.248 63.12v80.88zM170.335 688l37.376 76.784 40.416-76.784h-77.792zM241.087 784h66.448l-33.216-63.12-33.232 63.12zM300.511 688l33.233 63.12 33.248-63.12h-66.481zM359.952 784h66.448l-33.232-63.12-33.216 63.12zM419.392 688l33.216 63.12 33.216-63.12h-66.432zM478.816 784h66.448l-33.216-63.12-33.232 63.12zM576.048 688h-37.808l33.216 63.12 4.592-8.72v-54.4zM790.048 64l-140 48 140 48v-96zM650.048 160v96l140-48.032-140-47.968zM790.048 256l-140 48 140 48v-96zM650.048 352v95.968l140-47.968-140-48zM790.048 447.968l-93.36 32.032h93.36v-32.032zM814.048 716.032c0-15.408-10.816-28.032-24-28.032h-144.032c-13.184 0-23.968 12.624-23.968 28.032v135.84c0 15.504 10.784 28.128 23.968 28.128h144.032c13.184 0 24-12.624 24-28.128v-135.84zM868.608 720.88l-4.56 8.672v54.448h37.776l-33.216-63.12z" />
<glyph unicode="&#xe91a;" glyph-name="database" data-tags="database" horiz-adv-x="1056" d="M512.051 832c-188.586 0-341.332-76.373-341.332-170.667s152.747-170.668 341.332-170.668c188.589 0 341.334 76.374 341.334 170.668s-152.746 170.667-341.334 170.667zM170.719 576v-128c0-94.294 152.747-170.666 341.332-170.666 188.589 0 341.334 76.371 341.334 170.666v128c0-94.294-152.746-170.666-341.334-170.666-188.586 0-341.332 76.371-341.332 170.666zM170.719 362.666v-128c0-94.291 152.747-170.666 341.332-170.666 188.589 0 341.334 76.374 341.334 170.666v128c0-94.291-152.746-170.666-341.334-170.666-188.586 0-341.332 76.374-341.332 170.666z" />
<glyph unicode="&#xe91b;" glyph-name="doctor" data-tags="doctor" horiz-adv-x="1056" d="M633.226 266.243c128.854-24.32 220.16-86.611 220.16-159.571v-85.334h-682.667v85.334c0 72.96 91.307 135.251 220.161 159.571l121.171-202.24 121.174 202.24zM341.386 618.672h341.334v-85.334c0-45.264-17.981-88.672-49.987-120.678s-75.418-49.987-120.682-49.987c-45.264 0-88.672 17.981-120.678 49.987s-49.987 75.414-49.987 120.678v85.334zM341.386 661.338l17.494 174.933c1.059 10.561 6.019 20.347 13.91 27.448 7.888 7.1 18.141 11.005 28.755 10.952h221.44c21.76 0 40.106-16.64 42.24-38.4l17.494-174.933h-341.334zM512.051 832.005h-42.666v-42.667h-42.666v-42.667h42.666v-42.667h42.666v42.667h42.669v42.667h-42.669v42.667z" />
<glyph unicode="&#xe91c;" glyph-name="electric-switch" data-tags="electric-switch" horiz-adv-x="1056" d="M42.719 490.672h92.587c17.493 49.92 64.853 85.334 120.747 85.334 27.733 0 53.333-8.96 74.239-23.894l285.869 200.107 48.64-69.547-285.44-200.534c2.986-10.666 4.691-22.186 4.691-34.131 0-33.949-13.485-66.506-37.488-90.512-24.006-24.003-56.564-37.488-90.511-37.488-26.496-0.077-52.358 8.096-73.996 23.389s-37.978 36.941-46.751 61.942h-92.587v85.334zM981.386 490.672v-85.334h-92.586c-8.774-25.002-25.114-46.65-46.752-61.942s-47.501-23.466-73.997-23.389c-33.946 0-66.506 13.485-90.509 37.488-24.003 24.006-37.491 56.563-37.491 90.512 0 33.946 13.488 66.506 37.491 90.509s56.563 37.491 90.509 37.491c55.894 0 103.254-35.414 120.749-85.334h92.586zM256.052 490.672c-11.316 0-22.168-4.496-30.17-12.496-8.002-8.003-12.497-18.854-12.497-30.17 0-11.318 4.495-22.17 12.497-30.17 8.002-8.003 18.854-12.499 30.17-12.499s22.168 4.496 30.17 12.499c8.002 8 12.497 18.851 12.497 30.17 0 11.315-4.495 22.166-12.497 30.17-8.002 8-18.854 12.496-30.17 12.496zM768.051 490.672c-11.315 0-22.166-4.496-30.17-12.496-8-8.003-12.496-18.854-12.496-30.17 0-11.318 4.496-22.17 12.496-30.17 8.003-8.003 18.854-12.499 30.17-12.499s22.17 4.496 30.17 12.499c8.003 8 12.499 18.851 12.499 30.17 0 11.315-4.496 22.166-12.499 30.17-8 8-18.854 12.496-30.17 12.496z" />
<glyph unicode="&#xe91d;" glyph-name="face-mask" data-tags="face-mask" horiz-adv-x="1056" d="M864.051 704c-62.291 0-112.64-48.64-117.331-110.080l-211.2 60.587c-15.36 4.693-31.574 4.693-46.934 0l-211.2-60.587c-4.693 61.44-55.040 110.080-117.333 110.080-64.853 0-117.333-52.48-117.333-117.334v-149.331c0-64.854 52.48-117.334 117.333-117.334h82.347c48.213-100.694 150.612-170.666 269.652-170.666s221.44 69.971 269.654 170.666h82.346c64.854 0 117.334 52.48 117.334 117.334v149.331c0 64.854-52.48 117.334-117.334 117.334zM213.385 384h-53.333c-29.44 0-53.333 23.894-53.333 53.334v149.331c0 14.147 5.619 27.712 15.621 37.712 10.002 10.003 23.567 15.622 37.712 15.622s27.71-5.619 37.712-15.622c10.002-10 15.621-23.565 15.621-37.712v-202.666zM640.051 448l-110.931 29.866c-12.8 4.269-25.6 4.269-34.134 0l-110.934-29.866v42.666l98.134 29.869c17.066 4.266 38.4 4.266 59.734 0l98.131-29.869v-42.666zM917.386 437.334c0-29.44-23.894-53.334-53.334-53.334h-53.331v202.666c0 14.147 5.619 27.712 15.619 37.712 10.003 10.003 23.568 15.622 37.712 15.622 14.147 0 27.712-5.619 37.712-15.622 10.003-10 15.622-23.565 15.622-37.712v-149.331z" />
<glyph unicode="&#xe91e;" glyph-name="flask-round-bottom-outline" data-tags="flask-round-bottom-outline" horiz-adv-x="1056" d="M640.042 320.006c0-70.829-57.174-128-128-128s-128 57.171-128 128v42.666h85.334v-42.666c0-23.469 19.2-42.669 42.666-42.669s42.666 19.2 42.666 42.669v42.666h85.334v-42.666zM810.707 320.006c0-165.12-133.546-298.669-298.666-298.669s-298.667 133.549-298.667 298.669c0 119.040 69.973 221.866 170.667 270.080v156.586c0 23.467 19.2 42.667 42.666 42.667h21.334l-42.666 85.333h213.331l-42.666-85.333h21.334c23.466 0 42.666-19.2 42.666-42.667v-156.586c100.694-48.214 170.666-151.040 170.666-270.080zM469.376 704.005v-174.933c-51.802-10.573-97.827-40.003-129.162-82.586-31.333-42.582-45.74-95.28-40.426-147.878 5.314-52.602 29.968-101.354 69.184-136.81 39.216-35.453 90.202-55.082 143.069-55.082s103.853 19.629 143.069 55.082c39.216 35.456 63.872 84.208 69.184 136.81 5.315 52.598-9.091 105.296-40.426 147.878s-77.36 72.013-129.162 82.586v174.933h-85.331z" />
<glyph unicode="&#xe91f;" glyph-name="flask-round-bottom" data-tags="flask-round-bottom" horiz-adv-x="1056" d="M810.707 320.006c0-165.12-133.546-298.669-298.666-298.669s-298.667 133.549-298.667 298.669c0 119.040 69.973 221.866 170.667 270.080v156.586c0 23.467 19.2 42.667 42.666 42.667h21.334l-42.666 85.333h213.331l-42.666-85.333h21.334c23.466 0 42.666-19.2 42.666-42.667v-156.586c100.694-48.214 170.666-151.040 170.666-270.080zM469.376 704.005v-174.933c-48.189-9.837-91.494-36.019-122.595-74.115-31.1-38.099-48.083-85.773-48.072-134.95l3.413-38.829 81.92 84.48 173.654-173.651 164.691 164.691c-7.45 42.23-27.421 81.248-57.322 111.984-29.901 30.739-68.349 51.779-110.358 60.39v174.933h-85.331zM557.696 448.006c23.466 0 42.666-19.2 42.666-42.669 0-23.466-19.2-42.666-42.666-42.666-24.32 0-42.669 19.2-42.669 42.666 0 23.469 18.349 42.669 42.669 42.669z" />
<glyph unicode="&#xe920;" glyph-name="flask" data-tags="flask" horiz-adv-x="1056" d="M256.047 21.338c-33.948 0-66.505 13.488-90.509 37.491s-37.491 56.563-37.491 90.509c0 25.6 7.68 49.494 21.333 69.549l234.668 407.891v77.228c-11.318 0-22.17 4.495-30.17 12.497-8.003 8.002-12.499 18.854-12.499 30.17v42.667c0 22.632 8.992 44.337 24.995 60.34s37.709 24.994 60.339 24.994h170.666c22.634 0 44.339-8.991 60.339-24.994 16.003-16.003 24.995-37.708 24.995-60.34v-42.667c0-11.316-4.496-22.168-12.496-30.17-8.003-8.002-18.854-12.497-30.17-12.497v-77.228l234.666-407.891c13.654-20.054 21.334-43.949 21.334-69.549 0-33.946-13.488-66.506-37.491-90.509-24.006-24.003-56.563-37.491-90.509-37.491h-512.001zM213.38 149.338c0-11.315 4.495-22.166 12.497-30.17 8.001-8 18.854-12.496 30.17-12.496h512.001c11.315 0 22.166 4.496 30.17 12.496 8 8.003 12.496 18.854 12.496 30.17 0 8.96-2.986 17.494-7.68 24.32l-97.706 168.96-107.949-107.946-216.32 216.32-159.999-277.334c-4.693-6.826-7.68-15.36-7.68-24.32zM554.714 533.338c-11.315 0-22.17-4.493-30.17-12.496-8.003-8-12.496-18.854-12.496-30.17s4.493-22.17 12.496-30.17c8-8.003 18.854-12.496 30.17-12.496s22.17 4.493 30.17 12.496c8.003 8 12.496 18.854 12.496 30.17s-4.493 22.17-12.496 30.17c-8 8.003-18.854 12.496-30.17 12.496z" />
<glyph unicode="&#xe921;" glyph-name="gas-cylinder" data-tags="gas-cylinder" horiz-adv-x="1056" d="M682.707 576.006v-469.334c0-22.63-8.989-44.336-24.992-60.339s-37.709-24.995-60.339-24.995h-170.669c-22.63 0-44.336 8.992-60.339 24.995s-24.992 37.709-24.992 60.339v469.334c0 79.359 54.186 146.346 128 165.119v48.213h-85.334v85.333h256v-85.333h-85.334v-48.213c73.814-18.773 128-85.76 128-165.119z" />
<glyph unicode="&#xe922;" glyph-name="gas-station" data-tags="gas-station" horiz-adv-x="1056" d="M768.051 533.334c-11.315 0-22.166 4.493-30.17 12.496-8 8-12.496 18.854-12.496 30.17s4.496 22.17 12.496 30.17c8.003 8.003 18.854 12.496 30.17 12.496s22.17-4.493 30.17-12.496c8.003-8 12.499-18.854 12.499-30.17s-4.496-22.17-12.499-30.17c-8-8.003-18.854-12.496-30.17-12.496zM512.051 533.334h-255.999v213.332h255.999zM843.571 651.52l0.429 0.427-158.72 158.72-45.229-45.227 90.029-90.027c-40.109-14.080-68.694-53.759-68.694-99.413 0-14.006 2.758-27.878 8.118-40.819s13.219-24.701 23.123-34.605c20.003-20.003 47.136-31.242 75.424-31.242 15.36 0 29.44 3.411 42.669 8.96v-307.629c0-11.315-4.496-22.166-12.499-30.17-8-8-18.854-12.496-30.17-12.496s-22.166 4.496-30.17 12.496c-8 8.003-12.496 18.854-12.496 30.17v192c0 22.634-8.992 44.339-24.995 60.342-16.003 16-37.706 24.992-60.339 24.992h-42.666v298.667c0 22.632-8.992 44.337-24.995 60.34s-37.706 24.994-60.339 24.994h-255.999c-47.36 0-85.333-37.973-85.333-85.333v-682.667h426.667v320h64v-213.334c0-28.288 11.238-55.421 31.242-75.424s47.136-31.242 75.424-31.242c14.010 0 27.878 2.758 40.819 8.118 12.944 5.363 24.701 13.219 34.608 23.123 9.904 9.904 17.76 21.664 23.12 34.605s8.122 26.813 8.122 40.819v405.334c0 29.44-11.949 56.32-31.149 75.52z" />
<glyph unicode="&#xe923;" glyph-name="heavy-metal" data-tags="heavy-metal" horiz-adv-x="1056" d="M464.339 844.143c12.675 2.965 26.013-0.018 36.214-8.102l248.918-197.206c6.736-5.338 11.706-12.586 14.253-20.794l48.854-157.398c3.6-11.6 2.086-24.189-4.166-34.605-6.25-10.416-16.646-17.674-28.579-19.952l-232.851-44.48c-13.203-2.522-26.822 1.325-36.752 10.381l-270.337 246.486c-13.984 12.749-17.899 33.188-9.616 50.203l56.519 116.104c1.663 3.88 3.936 7.578 6.828 10.953 6.375 7.442 14.758 12.149 23.662 14.005l147.052 34.405zM340.243 699.612l-19.27-39.588 187.949-171.365 9.040 58.704-177.718 152.249zM567.574 617.229l-149.85 128.371 45.99 10.76 160.918-127.489-57.059-11.642zM602.755 537.315l-12.406-80.547 126.579 24.179-23.254 74.922-90.918-18.554zM298.205 514.122c5.345-22.95-8.928-45.888-31.878-51.232l-39.12-9.11 144.217-136.394 149.725 21.706c22.128 6.547 45.562-5.725 52.691-27.808l48.768-151.040c3.75-11.616 2.346-24.278-3.853-34.79-6.202-10.512-16.608-17.866-28.589-20.198l-249.13-48.557c-13.776-2.685-27.994 1.578-38.020 11.402l-247.488 242.454c-12.327 12.077-16.166 30.39-9.726 46.4l54.827 136.298c5.193 12.912 16.355 22.477 29.908 25.632l116.437 27.117c22.95 5.344 45.887-8.928 51.231-31.878zM503.84 250.355l-96.122-13.933-20.419-83.77 139.322 27.155-22.781 70.547zM307.020 183.635l-171.409 167.923 20.805 51.722 165.898-156.902-15.294-62.742zM871.459 400.323c22.019 4.893 44.045-8.198 50.266-29.882l41.709-145.322c3.299-11.494 1.622-23.846-4.624-34.048-6.243-10.198-16.483-17.312-28.221-19.6l-197.037-38.419c-13.414-2.618-27.267 1.35-37.264 10.672-9.994 9.318-14.918 22.864-13.248 36.426l18.925 153.43c2.208 17.92 15.462 32.512 33.088 36.429l136.406 30.314zM782.97 293.242l-8.042-65.181 93.642 18.259-17.792 61.994-67.808-15.072z" />
<glyph unicode="&#xe924;" glyph-name="human-greeting" data-tags="human-greeting" horiz-adv-x="1056" d="M65.406 796.594v-65.362c0-180.835 96.3-339.008 239.66-427.030v-204.8h653.616v87.149c0 115.91-232.25 174.298-348.595 174.298h-10.893c-206.979 0-381.277 174.298-381.277 370.384v65.362zM610.086 796.594c-46.227 0-90.56-18.363-123.248-51.051-32.685-32.687-51.050-77.020-51.050-123.249 0-46.224 18.365-90.56 51.050-123.245 32.688-32.688 77.021-51.053 123.248-51.053s90.56 18.365 123.248 51.053c32.688 32.685 51.050 77.021 51.050 123.245 0 46.228-18.362 90.562-51.050 123.249s-77.021 51.051-123.248 51.051z" />
<glyph unicode="&#xe925;" glyph-name="leaf" data-tags="leaf" horiz-adv-x="1056" d="M725.376 618.666c-384-85.331-473.601-348.586-562.348-569.171l80.64-28.16 40.533 98.131c20.48-7.251 41.814-12.8 57.174-12.8 469.331 0 597.331 725.334 597.331 725.334-42.666-85.333-341.331-96-554.666-138.667-213.333-42.667-298.667-223.999-298.667-309.333s74.667-160 74.667-160c138.667 394.666 565.334 394.666 565.334 394.666z" />
<glyph unicode="&#xe926;" glyph-name="machine" data-tags="machine" horiz-adv-x="1056" d="M341.386 533.338v128.001h85.334v-128.001h-85.334zM597.386 277.338v128h85.334v-128h-85.334zM341.386 277.338v128h213.334v-128h-213.334zM469.386 533.338v128.001h213.334v-128.001h-213.334zM256.052 192.006h511.999v554.666h-511.999v-554.666zM256.052 21.338c-23.467 0-43.548 8.349-60.245 25.046-16.725 16.726-25.088 36.822-25.088 60.288v682.667c0 23.467 8.363 43.563 25.088 60.288 16.697 16.697 36.779 25.045 60.245 25.045h511.999c23.469 0 43.565-8.348 60.288-25.045 16.698-16.725 25.046-36.821 25.046-60.288v-682.667c0-23.466-8.349-43.562-25.046-60.288-16.723-16.698-36.819-25.046-60.288-25.046h-85.331l-42.669 42.669h-256l-42.666-42.669h-85.333z" />
<glyph unicode="&#xe927;" glyph-name="medical-bag" data-tags="medical-bag" horiz-adv-x="1056" d="M426.72 832l-85.331-85.333v-85.333h-128.002c-49.067 0-80.213-42.668-85.333-85.333l-42.667-426.666c-5.12-42.669 23.040-85.334 85.333-85.334h682.668c62.291 0 90.451 42.666 85.331 85.334l-42.666 426.666c-5.12 42.666-40.106 85.333-85.334 85.333h-128v85.333l-85.331 85.333h-170.669zM426.72 746.667h170.669v-85.333h-170.669v85.333zM469.389 533.334h85.331v-128h128v-85.334h-128v-128h-85.331v128h-128v85.334h128v128z" />
<glyph unicode="&#xe928;" glyph-name="mining-helm" data-tags="mining-helm" horiz-adv-x="1056" d="M471.978 879.081c-15.853 0.282-32.621-4.178-52.096-15.676 91.258-74.638 169.21-148.562 198.128-271.815 35.994 3.766 71.962 6.659 103.12 6.739-37.917 106.744-100.662 197.81-182.666 254.66-24.525 17-45.651 25.72-66.486 26.092zM386.358 844.413c-60.192-7.478-112.27-23.076-154.152-49.152-60.536-37.69-101.56-96.69-118.074-191.552-12.722-73.078-3.846-160.826 2.894-238.973 21.626-17.386 46.754-33.389 68.876-46.326 35.776-20.781 78.954-41.955 113.35-52.672 9.894 34.061 20.656 63.942 32.505 94.966 52.64 2.23 103.341-0.922 151.51-9.709 16.72-36.678 28.266-77.699 33.904-112.301 54.214 0.202 103.984 2.515 152.867 8.886-15.485 7.782-31.043 18.934-42.138 29.875-28.771-0.48-51.296 0.195-77.587 1.782-33.238 93.347-46.765 196.902-53.949 283.254 28.861 10.211 60.288 18.63 86.186 23.526-27.811 116.104-101.824 181.964-196.192 258.394zM632.285 818.839c56.24-60.196 99.296-136.492 127.466-220.839 21.277-0.544 42.538-1.578 63.766-3.098-18.826 93.101-122.467 209.299-191.232 223.937zM698.237 561.638c-57.334-1.994-113.68-9.344-163.552-24.675 6.317-75.584 14.208-149.629 41.018-222.874 8.614-0.374 17.187-0.589 25.725-0.656-20.291 41.914-22.509 100.112-19.408 136.547 10.55 67.075 58.048 101.28 116.218 111.658zM654.195 508.461c-49.341-38.822-46.966-114.202-25.574-168.272 31.078-66.099 100.109-78.576 159.61-85.312-28.477 31.315-45.949 76.803-45.949 126.211 0 60.915 26.544 115.882 67.552 145.642-48.611 5.11-114.23 6.762-155.638-18.269zM879.965 514.061c-53.83 0-101.683-57.302-101.683-132.973 0-75.667 47.853-132.976 101.683-132.976s101.686 57.309 101.686 132.976c0 75.67-47.859 132.973-101.686 132.973zM73.41 458.566c-32.38-42.502-48.734-115.99-1.5-154.502 100.482-81.93 196.254-156.445 337.047-227.626 153.632-77.674 316.694-79.776 449.734-3.802 122.022 69.683 131.402 125.779 108.675 177.651-61.834-54.166-146.307-39.331-220.426-26.611-76.048-14.8-153.734-21.462-225.082-21.075 1.040-9.994 1.782-18.765 2.701-29.075-80.534-17.322-182.134-11.062-238.616 23.046 1.14 11.52 2.932 24.086 4.868 34.026-40.038 11.904-84.98 34.602-122.992 56.682-25.778 16.243-51.73 30.346-73.56 49.453-6.16 5.242-11.028 11.795-12.284 17.203-2.868 35.664-6.586 72.454-8.566 104.63zM357.162 325.795c-12.928-34.918-26.614-77.712-32.118-110.637 44.646-22.358 110.602-22.25 160.474-13.226-4.246 39.091-11.696 79.456-27.395 116.858-36.886 6.058-67.686 8.314-100.96 7.005z" />
<glyph unicode="&#xe929;" glyph-name="mining" data-tags="mining" horiz-adv-x="1056" d="M227.737 924.559c-16.852-0.080-33.624-1.666-50.188-4.872 213.801-128.694 373.446-300.721 499.439-499.687 5.053 107.52-38.141 218.259-107.066 308.499-28.195-10.596-62.954-1.484-86.934 22.5-23.962 23.96-33.117 58.694-22.566 86.876-71.453 53.914-153.013 87.084-232.685 86.684zM988.861 883.749l-141.872-155.25 60.122-251.126-110.186-17.558-38.813-161.254 146.998-78.246-82.499-111.875 59.315-88.064-177.562 55.248 32.998 87.69-153.373 67.686 26.246 169.126-222.749-116.25-8.442-156.499-224.439 55.312-66.5-208.314h900.753v909.374zM522.362 842.559c-0.778-0.020-1.552-0.056-2.314-0.12-7.286-0.65-13.763-3.392-18.374-8-12.294-12.3-11.491-37.76 7.75-57 19.245-19.246 44.704-20.048 56.998-7.752 12.298 12.296 11.494 37.756-7.75 57-11.274 11.274-24.669 16.192-36.31 15.874v-0.002zM393.050 704.813l-342.44-342.563c8.546-23.85 22.054-42.099 50.5-51.251l342.881 343.001c-15.594 17.78-32.618 34.666-50.941 50.812v0.002zM710.608 681.563l18.63-169.371 54.874 169.373-73.504-0.002zM446.55 531.626l-40.314-71.872 185.376-14.752-145.062 86.624z" />
<glyph unicode="&#xe92a;" glyph-name="monitor-shimmer" data-tags="monitor-shimmer" horiz-adv-x="1056" d="M896.051 277.338h-767.999v512.001h767.999zM896.051 874.672h-767.999c-47.36 0-85.333-37.973-85.333-85.333v-512.001c0-22.63 8.99-44.336 24.994-60.339s37.708-24.992 60.34-24.992h298.668v-85.334h-85.334v-85.334h341.334v85.334h-85.334v85.334h298.666c47.36 0 85.334 37.971 85.334 85.331v512.001c0 22.632-8.992 44.337-24.995 60.34s-37.706 24.994-60.339 24.994zM640.051 725.339l-26.451-58.453-58.88-26.88 58.88-26.879 26.451-58.454 26.88 58.454 58.454 26.879-58.454 26.88-26.88 58.453zM448.051 640.005l-46.506-102.828-102.827-46.506 102.827-46.506 46.506-102.829 46.934 102.829 102.4 46.506-102.4 46.506-46.934 102.828z" />
<glyph unicode="&#xe92b;" glyph-name="moped-electric" data-tags="moped-electric" horiz-adv-x="1056" d="M810.707 746.667c0 46.933-38.4 85.333-85.331 85.333h-128v-85.333h128v-113.067l-149.334-185.6h-149.334v213.333h-170.666c-94.293 0-170.667-76.373-170.667-170.668v-128h85.333c0-70.826 57.173-128 128-128s127.999 57.174 127.999 128h192l192 241.069v142.932zM298.708 320c-23.467 0-42.667 19.2-42.667 42.666h85.334c0-23.466-19.2-42.666-42.668-42.666zM213.375 789.333h213.332v-85.333h-213.332v85.333zM810.707 490.666c-70.826 0-128-57.171-128-128 0-70.826 57.174-128 128-128 70.829 0 128 57.174 128 128 0 70.829-57.171 128-128 128zM810.707 320c-23.466 0-42.666 19.2-42.666 42.666 0 23.469 19.2 42.669 42.666 42.669 23.469 0 42.669-19.2 42.669-42.669 0-23.466-19.2-42.666-42.669-42.666zM298.708 106.666h170.668v85.334l256-128h-170.669v-85.334l-255.999 128z" />
<glyph unicode="&#xe92c;" glyph-name="pier" data-tags="pier" horiz-adv-x="1056" d="M853.376 106.662c-59.309 0-118.614 20.051-170.669 56.746-104.106-72.96-237.226-72.96-341.331 0-52.054-36.694-111.361-56.746-170.668-56.746h-85.333v-85.334h85.333c58.453 0 116.907 14.934 170.668 42.666 106.666-55.466 234.666-55.466 341.331 0 53.76-27.731 111.789-42.666 170.669-42.666h85.331v85.334h-85.331zM853.376 789.328v42.667c0 11.316-4.496 22.168-12.499 30.17-8 8.001-18.851 12.497-30.17 12.497h-426.666v42.667h-128v-42.667h-42.667v-85.333h42.667v-384h-42.667v85.334h-85.333v-85.334h-42.667v-85.334h42.667v-170.666h42.667c14.080 0 28.587 1.28 42.667 3.414v167.251h213.332v-155.731c27.734-8.534 56.749-12.8 85.334-12.8v168.531h42.666v85.334h-42.666v85.334h-85.334v-85.334h-42.666v384h341.334v-197.12c-20.054-7.254-34.56-26.026-34.56-48.64 0-18.774 10.24-35.84 26.026-45.226v-50.349h26.454c14.506 0 26.026-11.946 26.026-26.451 0-14.509-11.52-26.454-26.026-26.454-9.389 0-17.92 5.12-23.040 13.226-1.706 2.947-3.974 5.53-6.678 7.597s-5.789 3.581-9.078 4.451c-3.293 0.874-6.723 1.088-10.096 0.63s-6.621-1.574-9.562-3.29c-12.8-6.829-17.066-23.040-9.814-35.84 14.080-23.894 40.109-39.254 68.269-39.254 43.091 0 78.506 35.414 78.506 78.934 0 33.28-21.334 63.146-52.48 74.24v2.56c16.214 9.386 26.454 26.451 26.454 45.226 0 19.626-11.52 36.266-27.734 45.226v200.534h85.334zM341.376 462.502l-42.668-42.669v60.589l42.668 42.666v-60.586zM341.376 588.368l-42.668-42.666v60.586l42.668 42.667v-60.587zM298.708 673.701v60.587l42.668 42.667v-60.587l-42.668-42.667z" />
<glyph unicode="&#xe92d;" glyph-name="plane" data-tags="plane" horiz-adv-x="1056" d="M877.277 793.174c25.171-25.173 25.171-65.707 0-90.453l-165.974-165.972 90.454-392.109-60.16-60.586-165.549 317.014-166.4-166.4 15.36-105.389-45.651-45.226-75.094 135.68-136.107 75.52 45.227 46.080 106.665-15.786 165.12 165.12-317.012 166.826 60.587 60.16 392.108-90.454 165.971 165.974c23.894 24.747 66.56 24.747 90.454 0z" />
<glyph unicode="&#xe92e;" glyph-name="processor" data-tags="processor" horiz-adv-x="1056" d="M457.734 895.558v-228.436h35.376v228.44l-35.376-0.004zM241.236 894.31c-31.014 0-56.188-25.172-56.188-56.186s25.174-56.126 56.188-56.126c25.31 0 46.68 16.744 53.688 39.75h89.873v-154.626h35.376v190h-126.065c-7.776 21.674-28.524 37.186-52.872 37.186v0.002zM627.734 894.31c-31.011 0-56.125-25.172-56.125-56.186 0-24.248 15.354-44.9 36.88-52.752v-118.248h35.309v117.186c23.194 6.904 40.128 28.386 40.128 53.812 0 31.016-25.174 56.188-56.189 56.188h-0.003zM532.294 774.998v-107.876h35.315v107.876h-35.315zM909.36 766.939c-31.014 0-56.189-25.176-56.189-56.19 0-26.166 17.898-48.148 42.128-54.376v-54.936h-185.878v-35.315h221.248v92.685c20.448 8.384 34.816 28.466 34.816 51.94 0 31.014-25.114 56.188-56.128 56.188l0.003 0.004zM60.422 712.684v-35.376h133.126v-111.187h125.628v35.318h-90.252v111.246l-168.502-0.002zM354.486 631.744v-319.437h319.619v319.44l-319.619-0.003zM389.606 600.435h35.312v-157.19l64.816-64.813h150.56v-35.315h-165.248l-26.688 26.688c-2.064-14.771-14.72-26.125-30.058-26.125-16.784 0-30.381 13.594-30.381 30.374 0 15.363 11.392 27.962 26.189 30l-24.496 24.502v171.882l-0.006-0.003zM499.485 600.122h35.373v-110.627h105.059l0.006-35.376h-140.435v146l-0.003 0.003zM106.296 525.248v-179.936c-22.98-7.024-39.688-28.397-39.688-53.69 0-31.011 25.114-56.186 56.128-56.186s56.186 25.174 56.186 56.182c0 24.39-15.58 45.13-37.312 52.877v145.44h177.564v35.312h-212.878zM709.421 525.248v-35.312h107.936v35.312h-107.936zM909.357 481.309c-21.795 0-40.682-12.419-50-30.56h-149.939l0.003-35.376h144.627c4.65-26.336 27.648-46.374 55.312-46.374 31.014 0 56.125 25.178 56.125 56.189 0 31.014-25.114 56.125-56.128 56.125v-0.003zM211.234 450.749v-35.376h107.94v35.376h-107.94zM245.546 377.808v-168.432c-22.996-7.027-39.75-28.4-39.75-53.69 0-31.011 25.174-56.189 56.188-56.189 31.012 0 56.12 25.178 56.12 56.189 0 24.387-15.532 45.13-37.248 52.874v133.882h38.312v35.37l-73.622-0.003zM709.421 377.808v-35.373h90.314v-190.563c-22.646-7.248-39.059-28.522-39.059-53.562-0.006-31.011 25.168-56.125 56.182-56.125s56.125 25.114 56.125 56.122c0 24.64-15.869 45.558-37.939 53.126v226.374h-125.622zM384.797 276.938v-108.064h35.376v108.064h-35.376zM457.738 276.938v-173.126c-22.026-7.587-37.878-28.467-37.878-53.059 0-31.014 25.174-56.192 56.189-56.192s56.125 25.181 56.125 56.192c0 25.059-16.406 46.278-39.062 53.498v172.688h-35.373zM532.298 276.938v-108.064h35.376l-0.064 108.064h-35.312zM608.486 276.938v-280.128h35.309v280.128h-35.309z" />
<glyph unicode="&#xe92f;" glyph-name="refinery" data-tags="refinery" horiz-adv-x="1056" d="M667.446 916.156c0 0 28.202-46.98 20.602-70.16-6.8-20.76-47.002-18.6-52-39.88-3.802-16.9 14.4-42.98 24.998-56.32h13.6c14.202 22.42 25.2 43.56 28 69.88 15.802-16.52 20.8-42.58 2.202-69.88h16.8c16 19.080 48.4 61.8 42.4 89.38-8.602 40.26-96.602 76.98-96.602 76.98zM208.047 857.856c-35 0-58.88-9.88-70.98-28.020s-11.020-37.98-11.020-53.98v-24.060h36v24.060c0 16 1.080 28.16 4.98 34.020s12.020 11.98 41.020 11.98h128.001c20 0 46-24.92 46-49.18v-244.081h36v57.2h206.598l3.2 36h-209.798v150.881c0 46.1-38 85.18-82 85.18h-128.001zM112.047 717.796v-36h64v36h-64zM672.448 713.796l-28.602-316.001h88.4l-28.598 316.001h-31.2zM144.047 649.796c-20 0-39.76-6.8-54.040-19.399-14.3-12.8-23.96-31.002-23.96-58.602v-592h156v592c0 27.402-9.6 45.802-24 58.602-14.24 12.599-34 19.399-54 19.399zM759.846 493.795l3.2-36h53.002c28.998 0 47.398-6.998 59.2-18.8 11.798-12 18.8-30.998 18.8-60.8v-79.798c5.6 2.198 11.6 3.398 18 3.398s12.4-1.2 18-3.398v79.798c0 35.802-9.002 65.6-29.2 86-20.202 20.602-49.802 29.6-84.8 29.6h-56.202zM354.048 489.795v-28h92v28h-92zM401.046 425.795c-59.398 0-111.6-29.398-143-74.598v-33.402h284.001v36.202c-31.6 43.398-82.8 71.798-141.002 71.798zM578.048 361.795v-220h220v220h-220zM258.047 281.795v-28h284.001v28h-284.001zM912.048 265.795c-8 0-14-6-14-14s6-14 14-14c8 0 14 6 14 14s-6 14-14 14zM258.047 217.795v-65.2c13.2-18.998 30-35.2 49.4-47.6l-45.4-91.2v-34h75v34h-34.799l37.599 75.002c19.002-7.002 39.6-11.002 61.2-11.002s42.202 4 61.2 11.002l37.6-75.002h-34.8v-34h128v34h-52.8l-45.6 91.2c18.4 11.802 34.602 27.002 47.402 44.602v68.198h-284.001zM894.048 205.197v-63.402h36v63.402c-5.6-2.202-11.6-3.402-18-3.402s-12.4 1.2-18 3.402zM661.446 105.795l99.2-126h82l-99.2 126h-82zM789.446 105.795l99.2-126h69.402v17.802l-86.602 108.198h-82zM917.446 105.795l40.602-50.8v50.8h-40.602zM642.048 72.595v-92.8h72.598l-72.598 92.8z" />
<glyph unicode="&#xe930;" glyph-name="rickshaw-electric" data-tags="rickshaw-electric" horiz-adv-x="1056" d="M853.376 445.862v56.32c0 20.051-6.829 39.68-19.629 55.040l-168.106 201.386c-16.214 19.627-40.106 30.72-65.706 30.72h-429.228c-46.933 0-85.333-38.4-85.333-85.333v-298.667c0-46.934 38.4-85.334 85.333-85.334h2.133c4.896-24.112 17.978-45.789 37.029-61.36 19.051-15.574 42.9-24.080 67.504-24.080s48.452 8.506 67.505 24.080c19.050 15.571 32.131 37.248 37.027 61.36h345.6c3.859-18.877 12.758-36.358 25.757-50.582 12.995-14.227 29.603-24.666 48.054-30.211 18.454-5.546 38.064-5.987 56.749-1.28s35.747 14.387 49.373 28.010c13.622 13.626 23.302 30.688 28.010 49.373s4.266 38.294-1.28 56.749c-5.546 18.451-15.984 35.059-30.211 48.054-14.224 12.998-31.706 21.898-50.582 25.757zM149.375 703.995c0 11.52 9.813 21.333 21.333 21.333h128v-192h-149.333v170.667zM277.375 298.662c-23.467 0-42.667 19.2-42.667 42.666s19.2 42.666 42.667 42.666c23.467 0 42.667-19.2 42.667-42.666s-19.2-42.666-42.667-42.666zM554.707 383.994h-170.666v64h85.334v85.334h-85.334v192h170.666v-341.334zM640.042 689.488l130.134-156.16h-130.134v156.16zM832.042 298.662c-23.466 0-42.666 19.2-42.666 42.666s19.2 42.666 42.666 42.666c23.466 0 42.666-19.2 42.666-42.666s-19.2-42.666-42.666-42.666zM469.376 106.662h-170.668l255.999-128v85.331h170.669l-256 128v-85.331z" />
<glyph unicode="&#xe931;" glyph-name="robot-industrial" data-tags="robot-industrial" horiz-adv-x="1056" d="M785.546 789.328l-102.829-102.827v-7.68l102.829-102.828h153.171v-85.331h-188.16l-67.84 67.84v-110.509h-42.666c-22.63 0-44.336 8.992-60.339 24.995s-24.995 37.709-24.995 60.339v106.666h-133.971c-3.84-15.786-10.24-30.72-18.774-44.8l245.76-445.866h205.654c22.63 0 44.336-8.989 60.339-24.992s24.992-37.709 24.992-60.342v-42.666h-853.332v42.666c0 22.634 8.99 44.339 24.993 60.342s37.708 24.992 60.34 24.992h282.028l-200.108 362.666c-37.363 0.634-73.489 13.491-102.848 36.611-29.359 23.117-50.333 55.219-59.712 91.389-5.572 21.742-6.802 44.368-3.618 66.584s10.718 43.587 22.172 62.887c11.454 19.301 26.602 36.153 44.577 49.591s38.424 23.2 60.177 28.725c90.88 23.467 183.892-31.147 207.361-122.453h133.971v106.667c0 22.632 8.992 44.337 24.995 60.34s37.709 24.993 60.339 24.993h42.666v-110.507l67.84 67.84h188.16v-85.333h-153.171zM256.052 767.995c-22.632 0-44.337-8.99-60.34-24.994s-24.994-37.708-24.994-60.34c0-22.632 8.99-44.338 24.994-60.338 16.003-16.003 37.708-24.995 60.34-24.995s44.337 8.992 60.34 24.995c16.002 16 24.994 37.707 24.994 60.338s-8.992 44.337-24.994 60.34c-16.003 16.003-37.708 24.994-60.34 24.994z" />
<glyph unicode="&#xe932;" glyph-name="sattelite" data-tags="sattelite" horiz-adv-x="1056" d="M696.736 832.048c33.168-27.561 65.069-56.615 95.6-87.072 30.566-30.372 59.725-62.134 87.376-95.184-3.44 34.56-26.752 78.608-65.44 117.104-38.624 38.464-82.848 61.728-117.536 65.152zM976.048 634.432c-5.568 55.664-43.152 126.624-105.408 188.592-62.192 61.968-133.44 99.44-189.312 104.976 53.434-44.356 104.8-91.146 153.936-140.224 49.264-48.919 96.24-100.089 140.784-153.344zM686.128 622.56c12.346-8.419 27.242-12.275 42.125-10.906 14.88 1.37 28.822 7.878 39.427 18.41 5.955 5.926 10.678 12.968 13.904 20.725s4.886 16.075 4.886 24.475c0 8.4-1.661 16.718-4.886 24.475s-7.949 14.8-13.904 20.725c-12.061 11.99-28.378 18.717-45.382 18.711-17.008-0.006-33.318-6.745-45.37-18.743-10.56-10.515-17.094-24.399-18.47-39.236-1.379-14.837 2.49-29.686 10.934-41.964l-24.24-20.672c-145.296 142.24-293.2 234.784-367.809 234.784-14.272 0-25.84-1.776-37.216-13.568-45.568-47.168-70.4-108.624-75.376-176.464-6.128-83.44 17.68-176.224 68.944-262.848-1.504-4.736-9.44-23.664-6.544-41.936 0 0-16.096-22.32-27.296-41.104l-0.128 0.016h-37.52c-28.704 0-51.936-34.784-51.936-77.68 0-34.72 15.296-63.776 36.304-73.744-0.032-1.312-0.192-5.168-0.192-5.168-37.104-5.808-65.552-37.472-65.552-76.048v-72.64h-32.784v-44.16h454.193v44.16h-32.784v72.64c0 38.576-29.872 72.736-66.976 78.512l14.784 18.032c11.056 0 29.2 7.184 29.2 7.184 86.96-51.024 180.080-75.008 263.824-68.656 74.944 5.68 135.184 28.192 180 78.352 45.376 50.832-54.88 227.792-224.944 400.176l20.784 24.16zM233.503 326.064c26.72-50.128 109.265-116.192 158.769-137.36l-15.536-22.144h-154.465c23.728 19.744 29.408 45.408 29.408 73.184 0 30.368-11.776 56.4-28.784 69.168 3.6 5.984 10.608 17.152 10.608 17.152zM193.471 301.44h6.256c17.008 0 35.952-25.344 35.952-61.68 0-36.368-18.96-61.712-35.952-61.712h-6.272c12.512 14.192 20.72 36.432 20.72 61.712s-8.208 47.488-20.704 61.68zM486.24-3.84v-12.16h-300.337v12.16h300.337zM453.456 84.8v-67.68h-234.337v128.928h172.769c33.936-0.016 61.568-27.488 61.568-61.248zM501.264 522.832l-44.896-30.56c-128.768 137.664-196.049 258.704-196.049 312.272 0 6.592 1.152 11.68 3.104 13.648 2 1.984 7.184 3.168 13.904 3.168 57.649 0 193.009-76.896 343.361-223.632l-104.88-89.408-14.544 14.512zM869.072 232.048c0-6.608-1.168-11.696-3.12-13.664-2-1.984-7.184-3.168-13.904-3.168-53.808 0-175.312 66.976-313.44 195.136l30.656 44.736-14.56 14.496 89.744 104.464c147.376-149.76 224.624-284.608 224.624-342z" />
<glyph unicode="&#xe933;" glyph-name="scooter-electric" data-tags="scooter-electric" horiz-adv-x="1056" d="M333.699 277.328h306.349v42.666c0 94.294 76.371 170.669 170.666 170.669h31.574l-81.069 360.106c-4.323 18.855-14.896 35.693-30 47.778-15.107 12.084-33.856 18.704-53.2 18.782h-165.971v-85.333h165.971l59.734-266.667h-0.426c-45.718-13.779-86.678-40.054-118.266-75.862-31.584-35.808-52.544-79.725-60.509-126.803h-224.854c-10.253 29.072-30.667 53.462-57.481 68.672s-58.223 20.218-88.438 14.099c-50.347-9.811-90.88-51.2-100.267-101.546-3.502-18.512-2.877-37.565 1.829-55.808 4.707-18.24 13.379-35.219 25.399-49.725s27.092-26.182 44.142-34.195c17.050-8.013 35.657-12.166 54.496-12.166 55.467 0 102.4 35.84 120.319 85.334zM213.38 277.328c-23.467 0-42.667 19.2-42.667 42.666 0 23.469 19.2 42.669 42.667 42.669s42.667-19.2 42.667-42.669c0-23.466-19.2-42.666-42.667-42.666zM810.714 447.994c-70.826 0-128-57.171-128-128 0-70.826 57.174-128 128-128s128 57.174 128 128c0 70.829-57.174 128-128 128zM810.714 277.328c-23.466 0-42.666 19.2-42.666 42.666 0 23.469 19.2 42.669 42.666 42.669s42.666-19.2 42.666-42.669c0-23.466-19.2-42.666-42.666-42.666zM469.379 106.662h-170.666l256-128v85.331h170.666l-256 128v-85.331z" />
<glyph unicode="&#xe934;" glyph-name="ship" data-tags="ship" horiz-adv-x="1056" d="M606.378 201.562c22.179 11.091 46.512 17.213 71.299 17.942s49.437-3.952 72.23-13.718l9.13-4.266 113.408-56.662c9.744-4.864 17.258-13.267 21.002-23.491 3.747-10.224 3.443-21.491-0.848-31.498s-12.246-17.994-22.237-22.326c-9.987-4.333-21.258-4.682-31.494-0.976l-4.566 1.962-113.45 56.704c-10.64 5.318-22.272 8.355-34.154 8.912-11.882 0.56-23.747-1.373-34.838-5.67l-7.338-3.242-56.15-28.118c-22.189-11.088-46.531-17.206-71.325-17.93-24.797-0.723-49.453 3.971-72.25 13.75l-9.088 4.179-56.192 28.118c-10.637 5.318-22.272 8.355-34.154 8.912-11.878 0.56-23.747-1.373-34.837-5.67l-7.339-3.242-113.408-56.746c-9.743-4.928-21.004-5.933-31.465-2.81-10.461 3.126-19.326 10.141-24.772 19.603-5.445 9.466-7.055 20.656-4.499 31.27s9.084 19.843 18.239 25.792l4.352 2.515 113.408 56.704c22.181 11.091 46.512 17.213 71.299 17.942s49.437-3.952 72.23-13.718l9.133-4.266 56.147-28.074c10.646-5.325 22.285-8.365 34.176-8.925 11.888-0.557 23.763 1.376 34.861 5.68l7.296 3.245 56.192 28.115zM554.707 874.672c11.315 0 22.17-4.495 30.17-12.497 8.003-8.002 12.496-18.854 12.496-30.17v-56.32l142.038-23.637c19.917-3.332 38.006-13.62 51.053-29.033s20.205-34.955 20.202-55.148v-146.433l87.891-29.267c7.002-2.336 13.44-6.099 18.912-11.050 5.472-4.954 9.856-10.986 12.874-17.718 3.021-6.733 4.611-14.019 4.669-21.398 0.061-7.379-1.414-14.691-4.326-21.472l-92.544-215.894-79.104 39.597c-23.699 11.85-49.834 18.019-76.33 18.019s-52.63-6.17-76.33-18.019l-56.192-28.118c-11.85-5.926-24.918-9.011-38.166-9.011s-26.317 3.085-38.166 9.011l-56.147 28.118c-23.699 11.85-49.834 18.019-76.333 18.019-26.497 0-52.63-6.17-76.33-18.019l-54.187-27.136-113.408 198.442c-3.915 6.851-6.26 14.486-6.868 22.352-0.608 7.869 0.538 15.773 3.354 23.142s7.233 14.026 12.931 19.482c5.699 5.459 12.537 9.584 20.023 12.080l86.485 28.842v146.433c-0.004 20.194 7.153 39.735 20.2 55.148s31.136 25.701 51.053 29.033l142.080 23.637v56.32c0 11.316 4.496 22.168 12.496 30.17 8.003 8.002 18.854 12.497 30.17 12.497h85.334zM512.042 703.408l-213.334-35.541v-118.017l186.326 62.125c17.517 5.837 36.454 5.837 53.971 0l186.368-62.125v118.017l-213.331 35.541z" />
<glyph unicode="&#xe935;" glyph-name="solar-power-variant" data-tags="solar-power-variant" horiz-adv-x="1056" d="M142.122 277.338h327.254v128h-298.668l-28.587-128zM554.707 277.338h327.254l-28.586 128h-298.669v-128zM900.736 192.006h-346.029v-170.669h384l-37.971 170.669zM85.375 21.338h384.001v170.669h-346.028l-37.973-170.669zM469.376 618.672h85.331v-128h-85.331v128zM672.467 652.379l60.589 60.587 90.451-90.453-60.16-60.586-90.88 90.452zM201.002 622.512l90.453 90.453 60.161-60.587-90.454-90.452-60.16 60.586zM128.042 874.672h128v-85.333h-128v85.333zM768.042 874.672h128v-85.333h-128v85.333zM512.042 661.339c117.76 0 213.334 95.573 213.334 213.333h-426.668c0-117.76 95.573-213.333 213.333-213.333z" />
<glyph unicode="&#xe936;" glyph-name="stethoscope" data-tags="stethoscope" horiz-adv-x="1056" d="M810.707 618.672c23.894 0 42.669-18.346 42.669-42.666 0-11.318-4.496-22.17-12.499-30.17-8-8.003-18.851-12.499-30.17-12.499-24.32 0-42.666 19.2-42.666 42.669 0 24.32 18.346 42.666 42.666 42.666zM85.375 874.672v-384c0-126.294 93.44-234.666 219.307-252.16 26.454-128.426 139.946-217.174 271.36-217.174 36.419 0 72.483 7.174 106.131 21.11 33.648 13.939 64.221 34.368 89.974 60.118 25.75 25.754 46.179 56.326 60.118 89.974 13.936 33.648 21.11 69.712 21.11 106.131v157.44c49.491 17.92 85.331 64.854 85.331 119.894 0 33.946-13.485 66.504-37.488 90.508-24.006 24.004-56.563 37.49-90.512 37.49-33.946 0-66.502-13.486-90.509-37.49-24.003-24.005-37.491-56.563-37.491-90.508 0-55.040 35.84-102.4 85.334-119.894v-153.6c0-106.666-85.334-192-192-192-85.334 0-157.014 51.626-182.614 128.426 118.614 25.6 203.949 132.269 203.949 251.734v384h-170.669v-128h85.334v-256c0-45.264-17.981-88.672-49.987-120.678s-75.414-49.987-120.678-49.987c-45.265 0-88.674 17.981-120.681 49.987s-49.987 75.414-49.987 120.678v256h85.333v128h-170.667z" />
<glyph unicode="&#xe937;" glyph-name="test-tube" data-tags="test-tube" horiz-adv-x="1056" d="M298.719 874.672v-85.333h42.667v-597.332c0-45.264 17.981-88.675 49.987-120.682s75.414-49.987 120.678-49.987c45.264 0 88.675 17.981 120.682 49.987s49.987 75.418 49.987 120.682v597.332h42.666v85.333h-426.667zM469.386 277.338c-25.6 0-42.666 17.069-42.666 42.669s17.066 42.666 42.666 42.666c25.6 0 42.666-17.066 42.666-42.666s-17.066-42.669-42.666-42.669zM554.72 448.006c-25.6 0-42.669 17.066-42.669 42.666s17.069 42.666 42.669 42.666c25.6 0 42.666-17.066 42.666-42.666s-17.066-42.666-42.666-42.666zM597.386 661.339h-170.666v128h170.666v-128z" />
<glyph unicode="&#xe938;" glyph-name="train" data-tags="train" horiz-adv-x="1056" d="M512.051 874.672c-170.666 0-341.332-21.333-341.332-170.667v-405.333c0-39.606 15.733-77.59 43.739-105.594 28.005-28.006 65.989-43.741 105.594-43.741l-63.999-64v-21.331h95.148l85.331 85.331h160.854l85.334-85.331h85.331v21.331l-64 64c39.606 0 77.59 15.734 105.597 43.741 28.003 28.003 43.738 65.987 43.738 105.594v405.333c0 149.333-152.746 170.667-341.334 170.667zM320.051 234.672c-16.973 0-33.252 6.742-45.254 18.746s-18.745 28.282-18.745 45.254c0 16.973 6.743 33.251 18.745 45.254s28.281 18.746 45.254 18.746c16.976 0 33.254-6.742 45.254-18.746 12.003-12.003 18.746-28.282 18.746-45.254s-6.742-33.251-18.746-45.254c-12-12.003-28.278-18.746-45.254-18.746zM469.386 533.338h-213.333v170.668h213.333v-170.668zM554.72 533.338v170.668h213.331v-170.668h-213.331zM704.051 234.672c-16.973 0-33.251 6.742-45.254 18.746s-18.746 28.282-18.746 45.254c0 16.973 6.742 33.251 18.746 45.254s28.282 18.746 45.254 18.746c16.976 0 33.254-6.742 45.254-18.746 12.003-12.003 18.746-28.282 18.746-45.254s-6.742-33.251-18.746-45.254c-12-12.003-28.278-18.746-45.254-18.746z" />
<glyph unicode="&#xe939;" glyph-name="tree" data-tags="tree" horiz-adv-x="1056" d="M469.376 64v181.76c-20.054-7.254-41.389-11.094-64-11.094-106.668 0-192.001 85.334-192.001 192 0 54.189 21.333 102.829 58.027 137.814-9.813 23.040-15.36 48.64-15.36 75.52 0 106.667 85.334 192 192 192 66.56 0 125.44-34.133 160-85.333h10.666c30.819 0 61.334-6.070 89.805-17.863s54.339-29.079 76.131-50.869c21.789-21.791 39.075-47.659 50.87-76.133 11.792-28.47 17.862-58.986 17.862-89.802s-6.070-61.331-17.862-89.802c-11.795-28.474-29.082-54.342-50.87-76.134-21.792-21.789-47.661-39.075-76.131-50.867-28.47-11.795-58.986-17.862-89.805-17.862-21.331 0-42.666 2.986-64 8.96v-222.294h-85.331z" />
<glyph unicode="&#xe93a;" glyph-name="xray" data-tags="xray" horiz-adv-x="1056" d="M608.042 778.672c0 25.461-10.115 49.879-28.118 67.882s-42.419 28.118-67.882 28.118c-25.459 0-49.878-10.114-67.882-28.118s-28.118-42.421-28.118-67.882c0-25.461 10.115-49.879 28.118-67.882s42.422-28.118 67.882-28.118c25.462 0 49.878 10.114 67.882 28.118s28.118 42.421 28.118 67.882zM640.042 234.672v-170.666c0.013-10.992-4.214-21.562-11.805-29.51-7.587-7.952-17.952-12.666-28.928-13.162-10.979-0.499-21.728 3.258-30.003 10.49-8.278 7.229-13.443 17.373-14.426 28.32l-15.853 174.528h101.014zM485.056 234.672l-15.853-174.528c-0.979-10.947-6.147-21.091-14.426-28.32-8.275-7.232-19.024-10.989-30.003-10.49-10.976 0.496-21.341 5.21-28.928 13.162-7.59 7.949-11.818 18.518-11.805 29.51v170.666h101.014zM767.082 661.339v0zM255.060 661.339v0zM234.708 640.005h554.668c5.658 0 11.085-2.248 15.085-6.248s6.246-9.427 6.246-15.085v-320c0-5.658-2.246-11.085-6.246-15.085s-9.427-6.25-15.085-6.25h-554.668c-5.658 0-11.084 2.25-15.085 6.25s-6.248 9.427-6.248 15.085v320c0 5.658 2.248 11.085 6.248 15.085s9.427 6.248 15.085 6.248zM490.707 597.338v-32h-10.666c-19.84 0-41.386-6.4-56.618-11.946-9.149-3.341-18.134-7.114-26.925-11.306l-0.448-0.214-0.147-0.086h-0.045v-0.019l9.517-19.094 9.536-19.094 0.042 0.022 0.256 0.128 1.216 0.598c7.059 3.302 14.266 6.291 21.59 8.96 14.080 5.12 29.866 9.386 42.026 9.386h10.666v-42.666h-17.066c-25.536 0-52.33-13.568-70.25-24.429-11.206-6.826-21.965-14.358-32.214-22.547l-0.554-0.429-0.15-0.128-0.064-0.042v-0.022l13.632-16.403 13.654-16.384 0.064 0.042 0.32 0.256 1.472 1.194c8.282 6.506 16.944 12.509 25.939 17.984 17.28 10.454 35.286 18.24 48.15 18.24h17.066v-46.25c-14.685-4.266-28.538-11.005-40.96-19.926-8.531-6.099-16.448-13.354-22.442-21.312-5.738-7.594-11.264-17.939-11.264-29.843h42.666v-0.365c0.637 1.651 1.539 3.184 2.669 4.544 2.771 3.693 7.251 8.045 13.226 12.31 11.946 8.576 26.518 14.506 38.122 15.51 9.856-0.256 23.808-5.654 36.096-14.592 6.038-4.374 10.71-8.96 13.654-12.886 1.213-1.475 2.186-3.13 2.88-4.906v-0.045l0.042-0.042-0.019 0.47h42.666c0 11.987-5.718 22.506-11.434 30.144-6.454 8.323-14.096 15.654-22.678 21.76-12.221 8.986-25.958 15.696-40.554 19.818v45.61h23.466c15.978 0 32.406-7.808 46.144-17.472 7.549-5.318 14.589-11.325 21.034-17.939l0.173-0.214 31.699 28.586-0.042 0.022-0.042 0.064-0.15 0.17-0.47 0.493c-2.362 2.493-4.803 4.912-7.315 7.251-6.41 5.962-13.216 11.478-20.374 16.512-16.64 11.67-41.814 25.197-70.656 25.197h-23.466v42.666h16c14.803 0 29.226-4.288 40.384-9.002 5.891-2.486 11.594-5.395 17.066-8.704l0.064-0.045 23.638 35.501-0.022 0.019-0.064 0.045-0.15 0.106-0.426 0.278c-2.077 1.315-4.189 2.576-6.336 3.776-5.581 3.101-11.328 5.891-17.216 8.362-14.144 5.974-34.41 12.33-56.938 12.33h-16v32h-42.669z" />
<glyph unicode="&#xe93b;" glyph-name="facebook" data-tags="facebook" horiz-adv-x="1056" d="M671.258 853.336c218.381 0 235.462-17.080 235.462-235.461v-329.059c0-218.381-17.082-235.482-235.462-235.482h-41.779v291.242h102.682l16.138 115.398h-118.819c0 0-0.179 67.562 0 84.422 0.339 32.979 27.882 49.658 51.539 49.418 23.661-0.24 72.682-0.080 72.682-0.080v106.341c0 0-42.461 5.5-86.979 5.96-37.421 0.38-78.742-9.74-112.080-43.34-33.92-34.181-39.261-85.080-39.92-147.282-0.182-18 0-55.44 0-55.44h-100.48v-115.398h100.48v-291.242h-172.522c-218.4 0-235.48 17.101-235.48 235.462v329.078c0 218.381 17.080 235.461 235.46 235.461h329.078z" />
<glyph unicode="&#xe93c;" glyph-name="instagram" data-tags="instagram" horiz-adv-x="1056" d="M503.126 853.336c-367.641 0-396.408-28.786-396.408-396.405v-7.19c0-367.619 28.766-396.406 396.408-396.406h7.187c367.638 0 396.406 28.787 396.406 396.406v3.594c0 370.962-29.040 400.002-400 400.002h-3.594zM746.602 733.336c22.099 0.060 40.058-17.783 40.118-39.883 0.058-22.1-17.786-40.057-39.885-40.117s-40.058 17.783-40.115 39.883c-0.061 22.1 17.782 40.057 39.882 40.117zM506.25 653.336c110.442 0.26 200.208-89.093 200.47-199.531 0.259-110.442-89.091-200.208-199.533-200.47-110.438-0.259-200.208 89.094-200.468 199.533s89.092 200.209 199.531 200.469zM506.445 573.334c-66.278-0.16-119.885-54.032-119.725-120.31 0.16-66.259 54.013-119.85 120.272-119.69 66.282 0.16 119.888 54.016 119.728 120.275-0.16 66.278-54.016 119.885-120.275 119.725z" />
<glyph unicode="&#xe93d;" glyph-name="linkedin" data-tags="linkedin" horiz-adv-x="1056" d="M671.258 853.336c218.362 0 235.462-17.080 235.462-235.461v-329.059c0-218.381-17.101-235.482-235.462-235.482h-329.078c-218.36 0-235.46 17.101-235.46 235.462v329.078c0 218.381 17.1 235.461 235.46 235.461h329.078zM367.299 233.334v325.44h-101.14v-325.44h101.14zM316.739 605.315c32.5 0 58.941 26.442 58.941 58.981 0 32.5-26.442 58.94-58.941 58.94-32.58 0-58.98-26.4-58.98-58.94s26.36-58.981 58.98-58.981zM746.72 233.334v178.502c0 87.638-18.922 155.040-121.341 155.040-49.2 0-82.179-26.982-95.699-52.56h-1.36v44.458h-97.021v-325.44h101.078v161.002c0 42.438 8.102 83.558 60.72 83.558 51.882 0 52.56-48.538 52.56-86.298v-158.262h101.062z" />
<glyph unicode="&#xe93e;" glyph-name="nswi" data-tags="nswi" horiz-adv-x="1056" d="M276.382 467.072v296.69h44.841l183.974-228.45h-22.211v228.45h54.061v-296.69h-44.842l-183.973 228.451h22.21v-228.451h-54.060zM681.45 462.835c-22.912 0-44.842 3.248-65.795 9.747-20.954 6.781-37.578 15.398-49.872 25.856l18.861 42.806c11.731-9.325 26.259-17.094 43.584-23.312 17.322-6.214 35.062-9.325 53.222-9.325 15.366 0 27.798 1.696 37.296 5.088 9.501 3.389 16.483 7.91 20.954 13.562 4.47 5.936 6.707 12.576 6.707 19.92 0 9.043-3.213 16.25-9.642 21.616-6.426 5.651-14.806 10.032-25.142 13.139-10.058 3.392-21.373 6.499-33.946 9.325-12.294 2.826-24.726 6.077-37.299 9.75-12.291 3.955-23.606 8.899-33.942 14.832-10.061 6.218-18.301 14.413-24.726 24.584s-9.638 23.17-9.638 38.993c0 16.106 4.189 30.799 12.573 44.079 8.659 13.563 21.651 24.3 38.973 32.212 17.6 8.194 39.811 12.292 66.634 12.292 17.6 0 35.062-2.26 52.384-6.781s32.41-11.020 45.261-19.497l-17.184-42.808c-13.13 7.912-26.682 13.704-40.65 17.378-13.968 3.956-27.379 5.934-40.23 5.934-15.088 0-27.379-1.837-36.88-5.51-9.219-3.673-16.064-8.477-20.534-14.411-4.189-5.934-6.285-12.715-6.285-20.344 0-9.042 3.072-16.388 9.219-22.040 6.426-5.369 14.669-9.607 24.726-12.715 10.336-3.108 21.792-6.216 34.362-9.324 12.573-2.826 25.005-6.077 37.299-9.75 12.573-3.674 23.888-8.477 33.946-14.41 10.336-5.933 18.579-13.987 24.726-24.16 6.426-10.17 9.638-23.027 9.638-38.57 0-15.821-4.333-30.515-12.992-44.077-8.381-13.28-21.373-24.019-38.976-32.214-17.6-7.91-39.811-11.866-66.63-11.866zM353.274 128l-97.227 296.688h56.575l86.748-268.291h-28.077l90.102 268.291h50.288l87.587-268.291h-27.242l88.845 268.291h51.965l-97.226-296.688h-57.83l-80.045 242.013h15.088l-81.302-242.013h-58.25zM729.094 128v226.333h52.384v-226.333h-52.384zM755.498 391.629c-9.779 0-17.882 3.107-24.307 9.325-6.147 6.218-9.219 13.706-9.219 22.464 0 9.040 3.072 16.528 9.219 22.464 6.426 6.214 14.528 9.325 24.307 9.325s17.741-2.966 23.888-8.902c6.426-5.651 9.638-12.854 9.638-21.616 0-9.325-3.075-17.235-9.219-23.734-6.147-6.218-14.25-9.325-24.307-9.325z" />
<glyph unicode="&#xe93f;" glyph-name="twitter" data-tags="twitter" horiz-adv-x="1056" d="M981.376 739.638c-26.4-39.461-59.821-74.141-98.323-101.942 0.362-8.461 0.56-16.941 0.56-25.482 0-260.266-198.045-560.371-560.333-560.371-111.241 0-256.204 38.96-301.905 88.464 15.44-1.84 31.121-2.762 47.001-2.762 92.302 0 177.224 31.501 244.605 84.323-86.182 1.578-158.924 58.56-183.984 136.8 39.201-6.16 88.942 3.402 88.942 3.402s-154.003 26.442-157.983 195.584c44.521-25.821 89.202-24.621 89.202-24.621s-88.822 54.682-87.582 163.904c0.74 64.421 26.621 99.062 26.621 99.062 168.284-207.225 405.97-205.804 405.97-205.804s-5.101 29.421-5.101 44.861c0 108.742 88.16 196.944 196.944 196.944 56.64 0 107.821-23.921 143.741-62.221 44.902 8.86 87.062 25.261 125.104 47.821-17.181-68.801-86.582-108.962-86.582-108.962s59.382 6.58 113.104 31.001z" />
<glyph unicode="&#xe940;" glyph-name="youtube" data-tags="youtube" horiz-adv-x="1056" d="M931.914 740.796c43.741-45 49.462-116.501 49.462-291.461s-5.722-246.458-49.462-291.459c-43.738-44.979-89.299-48.541-430.538-48.541-341.241 0-386.801 3.562-430.541 48.541-43.74 45.002-49.46 116.499-49.46 291.459s5.72 246.461 49.46 291.461c43.74 45 89.3 48.54 430.541 48.54 341.238 0 386.8-3.56 430.538-48.54zM420.374 300.995l242.922 140.762-242.922 138.56v-279.322z" />
<glyph unicode="&#xe941;" glyph-name="agriculture" data-tags="agriculture" d="M290.123 164.464c-38.038 52.835-38.038 113.87-38.038 174.449 76.534-45.548 152.611-91.097 191.108-144.387l15.124-25.507v103.849c-68.745 40.993-133.823 82.898-168.194 130.722-38.038 52.837-38.038 113.87-38.038 174.45 76.534-45.549 152.611-91.097 191.108-144.387l15.124-26.419v104.762c-68.745 40.993-133.823 82.897-168.194 130.722-38.038 52.837-38.038 113.87-38.038 174.45 76.534-45.548 152.611-91.096 191.108-144.388 4.583-6.376 8.707-13.208 12.373-20.496-7.79 28.24-12.832 54.658-13.29 81.986-0.458 68.778 29.789 139.377 60.036 209.977 31.623-67.411 63.244-135.278 63.702-204.055 0.458-28.696-4.583-57.847-12.832-86.542 3.666 6.377 7.332 12.754 11.916 19.13 38.496 53.292 114.573 98.84 191.108 144.388 0-60.579 0-121.613-38.039-174.45-34.372-47.826-99.449-89.729-168.193-130.722v-104.762l15.124 26.419c38.496 53.291 114.573 98.838 191.108 144.387 0-60.58 0-121.613-38.039-174.45-34.372-47.824-99.449-89.729-168.193-130.722v-103.849l15.124 25.507c38.496 53.291 114.573 98.84 191.108 144.387 0-60.578 0-121.613-38.039-174.449-34.372-47.826-99.449-89.731-168.193-130.724v-81.986h-91.659v81.986c-68.745 40.993-133.823 82.898-168.194 130.724z" />
<glyph unicode="&#xe942;" glyph-name="announcements" data-tags="announcements" d="M924.251 610.789v-378.092c0-46.211-37.809-84.020-84.020-84.020h-588.145l-168.041-168.042v756.185c0 46.212 37.809 84.021 84.021 84.021h424.303c-4.2-12.603-4.2-29.407-4.2-42.010 0-117.629 92.422-210.051 210.051-210.051 46.211 0 92.423 16.803 126.031 42.009zM672.19 778.831c0-71.417 54.614-126.031 126.031-126.031s126.031 54.614 126.031 126.031c0 71.417-54.614 126.031-126.031 126.031s-126.031-54.613-126.031-126.031z" />
<glyph unicode="&#xe943;" glyph-name="camera" data-tags="camera" d="M728.201 480.711c0 36.090-25.592 66.273-59.499 73.537 13.548 22.618 21.865 48.774 21.865 76.998 0 83.021-67.516 150.537-150.537 150.537-57.053 0-106.203-32.253-131.719-79.182-25.515 46.929-74.665 79.182-131.719 79.182-83.021 0-150.537-67.516-150.537-150.537 0-33.945 11.742-64.956 30.747-90.17-9.502-6.944-17.236-16.028-22.577-26.514-5.341-10.487-8.14-22.084-8.17-33.852v-301.073c0-41.511 33.758-75.269 75.268-75.269h451.611c41.511 0 75.269 33.757 75.269 75.269v99.241l150.536-75.269v263.439l-150.536-75.269v88.93zM540.029 706.516c41.511 0 75.269-33.757 75.269-75.269 0-41.51-33.757-75.267-75.269-75.267-41.51 0-75.267 33.757-75.267 75.267 0 41.511 33.757 75.269 75.267 75.269zM276.59 706.516c41.511 0 75.269-33.757 75.269-75.269 0-41.51-33.757-75.267-75.269-75.267-41.51 0-75.269 33.757-75.269 75.267 0 41.511 33.759 75.269 75.269 75.269z" />
<glyph unicode="&#xe944;" glyph-name="cut" data-tags="cut" d="M813.306 791.365l1.889-6.045 20.853-72.611c1.889-6.582 1.331-13.626-1.572-19.828s-7.954-11.143-14.218-13.909l-3.628-1.322-405.254-116.17h421.612c6.851-0.011 13.468-2.506 18.621-7.021 5.155-4.515 8.498-10.744 9.411-17.534l0.265-3.778v-321.084c0-26.457-10.090-51.917-28.217-71.187s-42.923-30.9-69.33-32.516l-6.346-0.189h-472.199c-26.457-0.002-51.917 10.090-71.187 28.217-19.272 18.126-30.901 42.921-32.516 69.328l-0.189 6.347v317.041l-19.721 68.795c-7.289 25.431-4.6 52.686 7.516 76.205 12.118 23.517 32.751 41.527 57.689 50.354l6.045 1.965 453.876 130.111c25.433 7.288 52.687 4.6 76.206-7.517 23.517-12.117 41.527-32.75 50.354-57.69l0.038 0.038zM304.954 688.153l-56.518-16.245c-11.225-3.222-20.858-10.487-27.040-20.393-6.182-9.908-8.472-21.754-6.432-33.253l1.134-4.721 12.995-45.373 11.146 3.211 64.715 116.775zM484.629 739.645l-102.644-29.43-64.755-116.736 102.684 29.392 64.715 116.774zM664.382 791.213l-102.684-29.468-64.715-116.736 102.608 29.392 64.791 116.812zM734.159 800.016l-57.461-103.515 97.053 27.843-12.995 45.335c-1.913 6.71-5.29 12.91-9.89 18.156s-10.305 9.407-16.707 12.181z" />
<glyph unicode="&#xe945;" glyph-name="email" data-tags="email" d="M924.248 721.069h-546.132c-46.212 0-84.022-37.809-84.022-84.020v-378.092c0-22.284 8.852-43.655 24.609-59.412s37.129-24.609 59.412-24.609h546.132c46.631 0 84.022 37.39 84.022 84.022v378.092c0 22.284-8.852 43.654-24.609 59.411s-37.129 24.609-59.412 24.609zM924.248 566.891l-273.066-139.894-273.066 139.894v70.158l273.066-139.054 273.066 139.054v-70.158zM210.074 258.957c0-7.143 1.26-13.863 2.1-21.006h-170.141c-23.19 0-42.010 18.905-42.010 42.011s18.821 42.011 42.010 42.011h168.041v-63.015zM126.054 658.054h86.121c-0.84-7.141-2.1-13.863-2.1-21.005v-63.015h-84.021c-23.106 0-42.010 18.905-42.010 42.009 0 23.106 18.905 42.011 42.010 42.011zM42.033 448.003c0 23.105 18.905 42.009 42.010 42.009h126.031v-84.020h-126.031c-23.106 0-42.010 18.905-42.010 42.011z" />
<glyph unicode="&#xe946;" glyph-name="energy" data-tags="energy" d="M168.062 779.050h252.062v-84.020h-252.062v84.020zM42.031 611.010h210.051v-84.022h-210.051v84.022zM126.051 106.887h210.051v-84.022h-210.051v84.022zM576.821 459.352c32.349-9.662 54.614-32.768 65.957-61.334l179.384 298.693c27.306 45.371 12.603 103.345-32.768 131.492-36.549 21.845-83.601 17.224-114.688-12.183l-144.096-134.853c-16.805-15.544-26.466-37.809-26.466-60.915v-165.1c15.124 6.302 42.011 13.863 72.677 4.202zM445.749 389.615c6.722 21.846 20.165 40.33 37.39 53.354h-345.325c-53.773 0-95.783-42.011-95.783-95.783 0-42.85 28.147-80.239 69.317-92.002l189.466-54.193c22.266-6.302 46.212-3.36 66.377 8.822l113.007 67.636c-16.312 13.099-28.316 30.794-34.457 50.792s-6.139 41.379 0.008 61.375zM933.069 123.271l-95.783 172.662c-11.6 19.929-30.64 34.436-52.933 40.33l-133.174 33.608c0-13.443 0-27.727-4.621-41.59-6.435-21.589-19.702-40.508-37.806-53.916s-40.070-20.581-62.598-20.442c-25.627 0-42.011 9.243-42.011 9.243v-240.3c-46.211 0-84.020-37.809-84.020-84.020h252.062c0 46.211-37.809 84.020-84.022 84.020v179.805l193.668-193.668c37.389-37.389 97.883-37.389 135.272 0 30.247 30.247 36.97 76.879 15.965 114.269zM527.669 298.873c33.189-10.082 68.477 8.403 78.56 42.011 10.082 33.189-8.402 68.477-42.011 78.56-33.187 10.082-68.476-8.403-78.558-42.011-10.082-33.189 8.822-68.477 42.009-78.56z" />
<glyph unicode="&#xe947;" glyph-name="eselon-1" data-tags="eselon-1" d="M693.194 311.466c13.792 0 27.45 2.718 40.193 7.995s24.319 13.014 34.072 22.767c9.752 9.752 17.488 21.329 22.766 34.072 5.279 12.742 7.995 26.399 7.995 40.191 0 27.854-11.066 54.568-30.761 74.264-19.697 19.697-46.411 30.763-74.265 30.763s-54.568-11.066-74.264-30.763c-19.697-19.695-30.761-46.409-30.761-74.264 0-13.792 2.716-27.45 7.994-40.191 5.279-12.743 13.014-24.321 22.767-34.072 19.695-19.697 46.409-30.763 74.264-30.763zM378.118 353.477c33.427 0 65.482 13.279 89.118 36.913s36.913 55.693 36.913 89.118-13.277 65.482-36.913 89.118c-23.635 23.634-55.691 36.913-89.118 36.913-33.425 0-65.481-13.279-89.116-36.913s-36.914-55.693-36.914-89.118 13.279-65.482 36.914-89.118c23.635-23.634 55.691-36.913 89.116-36.913zM693.194 227.446c-76.879 0-231.055-38.649-231.055-115.528v-94.523h462.112v94.523c0 76.879-154.178 115.528-231.057 115.528zM378.118 269.457c-97.883 0-294.071-49.152-294.071-147.037v-105.025h294.071v94.523c0 35.708 13.863 98.304 99.564 145.775-36.549 7.562-71.838 11.763-99.564 11.763z" />
<glyph unicode="&#xe948;" glyph-name="events" data-tags="events" d="M798.217 117.169h-588.143v462.112h588.143zM672.187 873.354v-84.020h-336.082v84.020h-84.020v-84.020h-42.011c-46.631 0-84.021-37.39-84.021-84.022v-588.143c0-22.284 8.852-43.654 24.609-59.411s37.128-24.609 59.412-24.609h588.143c22.284 0 43.655 8.852 59.412 24.609s24.609 37.127 24.609 59.411v588.143c0 22.284-8.852 43.655-24.609 59.412s-37.129 24.609-59.412 24.609h-42.009v84.020zM714.197 411.242h-210.051v-210.052h210.051v210.052z" />
<glyph unicode="&#xe949;" glyph-name="gallaries" data-tags="gallaries" d="M420.125 346.545l-147.035-197.868h460.433l-113.848 148.716-82.76-98.304-116.79 147.456zM210.074 64.657v588.143h586.464v-588.143h-586.464zM504.147 846.047l109.647-110.488h-220.135l110.488 110.488zM210.074 735.56c-21.005 0-42.011-7.981-58.394-24.365-17.224-16.384-25.626-35.709-25.626-58.395v-588.143c0-21.006 8.402-42.011 25.626-58.395 16.384-17.224 37.39-25.627 58.394-25.627h586.464c22.686 0 42.009 8.403 59.234 25.627 16.803 16.384 26.466 37.389 26.466 58.395v588.143c0 22.686-9.663 42.011-26.466 58.395-17.225 16.384-36.549 24.365-59.234 24.365h-124.351l-168.040 169.302-169.722-169.302h-124.35z" />
<glyph unicode="&#xe94a;" glyph-name="history" data-tags="history" d="M567.159 568.78h-63.015v-210.052l179.803-106.706 30.247 50.833-147.035 87.38v178.545zM546.154 778.831c-100.276 0-196.446-39.835-267.352-110.74-70.906-70.906-110.74-167.076-110.74-267.352h-126.031l166.361-169.302 169.721 169.302h-126.031c0 77.993 30.983 152.79 86.131 207.94 55.149 55.149 129.949 86.133 207.941 86.133s152.79-30.983 207.94-86.133c55.149-55.149 86.131-129.947 86.131-207.94s-30.982-152.79-86.131-207.94c-55.149-55.149-129.947-86.133-207.94-86.133-81.080 0-154.599 33.189-207.532 86.542l-59.654-59.655c34.929-35.314 76.55-63.312 122.426-82.355s95.087-28.749 144.759-28.552c100.276 0 196.446 39.835 267.351 110.74s110.742 167.076 110.742 267.352-39.835 196.446-110.742 267.352c-70.905 70.905-167.074 110.74-267.351 110.74z" />
<glyph unicode="&#xe94b;" glyph-name="infrastructure" data-tags="infrastructure" d="M840.225 616.042h-252.062c-69.736 0-126.031-56.293-126.031-126.031v-294.071c0-69.738 56.295-126.031 126.031-126.031l-42.009-42.011v-42.011h42.009l84.022 85.282h84.020l84.020-85.282h42.011v42.011l-42.011 42.011c69.738 0 126.031 56.293 126.031 126.031v294.071c0 69.738-56.293 126.031-126.031 126.031zM588.164 153.929c-23.105 0-42.009 18.905-42.009 42.011s18.905 42.009 42.009 42.009c23.106 0 42.011-18.905 42.011-42.009 0-23.106-18.905-42.011-42.011-42.011zM840.225 153.929c-23.105 0-42.009 18.905-42.009 42.011s18.905 42.009 42.009 42.009c23.106 0 42.011-18.905 42.011-42.009 0-23.106-18.905-42.011-42.011-42.011zM882.236 279.96h-336.082v252.062h336.082v-252.062zM279.809 341.715l14.284-103.766-44.111-44.53-73.939 133.593-134.012 74.358 44.531 45.371 105.026-15.544 162.58 162.58-312.136 164.261 59.655 59.234 386.074-89.062 163.419 163.421c23.527 24.576 65.536 24.576 89.063 0 24.786-24.786 24.786-65.536 0-89.062l-144.516-144.515h-7.562c-92.842 0-168.040-75.198-168.040-168.042v-7.981l-140.315-140.315z" />
<glyph unicode="&#xe94c;" glyph-name="lifestyle" data-tags="lifestyle" d="M504.147 818.215c52.46 0 94.523-42.063 94.523-94.523s-42.063-94.523-94.523-94.523c-52.46 0-94.523 42.063-94.523 94.523s42.535 94.523 94.523 94.523zM929.501 251.077v94.523c-105.866 0-196.608 45.371-264.665 126.661l-63.33 75.618c-8.794 10.659-19.837 19.239-32.341 25.121-12.502 5.884-26.151 8.926-39.969 8.907h-48.679c-28.83 0-55.296-12.288-73.255-34.028l-63.33-75.618c-68.529-81.29-159.271-126.661-265.138-126.661v-94.523c130.915 0 245.288 55.296 330.831 153.6v-106.338l-183.375-73.255c-31.665-12.761-52.933-44.898-52.933-78.454 0-46.789 37.809-84.598 84.598-84.598h104.448v23.631c0 31.336 12.447 61.39 34.606 83.547s52.21 34.606 83.547 34.606h141.785c13.233 0 23.631-10.398 23.631-23.631s-10.398-23.631-23.631-23.631h-141.785c-39.227 0-70.892-31.665-70.892-70.892v-23.631h340.756c46.789 0 84.598 37.809 84.598 84.598 0 33.556-21.268 65.694-52.933 78.454l-183.375 73.255v106.338c85.543-98.304 199.916-153.6 330.831-153.6z" />
<glyph unicode="&#xe94d;" glyph-name="magazine" data-tags="magazine" d="M798.216 873.354l-210.052-189.046v-462.112l210.052 189.046v462.112zM273.087 747.323c-81.92 0-170.141-16.805-231.056-63.015v-615.87c0-10.503 10.503-21.006 21.005-21.006 4.201 0 6.302 2.941 10.503 2.941 56.714 27.306 138.634 45.792 199.548 45.792 81.92 0 170.142-16.805 231.057-63.015 56.714 35.708 159.638 63.015 231.057 63.015 69.317 0 140.734-13.024 199.548-44.531 4.202-2.1 6.302-1.26 10.503-1.26 10.503 0 21.005 10.503 21.005 21.005v612.93c-25.206 18.905-52.512 31.508-84.020 42.011v-567.138c-46.211 14.703-96.623 21.005-147.035 21.005-71.418 0-174.343-27.306-231.057-63.015v567.138c-60.915 46.211-149.137 63.015-231.057 63.015z" />
<glyph unicode="&#xe94e;" glyph-name="manufacturing" data-tags="manufacturing" d="M725.202 646.048l-94.844-94.013v-7.021l94.844-94.013h141.284v-78.019h-173.554l-62.574 62.024v-101.034h-39.355c-20.875 0-40.895 8.22-55.655 22.851s-23.054 34.476-23.054 55.168v97.524h-123.573c-3.541-14.434-9.446-28.088-17.317-40.96l226.684-407.65h189.689c20.874 0 40.894-8.22 55.655-22.851s23.054-34.477 23.054-55.168v-39.010h-787.093v39.010c0 20.691 8.293 40.536 23.053 55.168 14.761 14.631 34.781 22.851 55.655 22.851h260.135l-184.574 331.581c-34.463 0.578-67.784 12.335-94.864 33.471s-46.426 50.486-55.077 83.558c-5.14 19.877-6.274 40.563-3.337 60.874 2.937 20.313 9.886 39.851 20.451 57.497 10.565 17.647 24.536 33.055 41.116 45.341s35.441 21.211 55.505 26.263c83.826 21.455 169.619-28.477 191.264-111.958h123.573v97.524c0 20.693 8.293 40.536 23.054 55.168s34.78 22.851 55.655 22.851h39.355v-101.034l62.574 62.024h173.554v-78.019h-141.284zM236.81 626.543c-20.874 0-40.894-8.219-55.655-22.851-14.761-14.631-23.054-34.476-23.054-55.167 0-20.693 8.293-40.538 23.054-55.168 14.761-14.632 34.781-22.851 55.655-22.851 20.875 0 40.895 8.219 55.657 22.851 14.76 14.631 23.053 34.476 23.053 55.168 0 20.691-8.293 40.536-23.053 55.167-14.761 14.632-34.781 22.851-55.657 22.851z" />
<glyph unicode="&#xe94f;" glyph-name="map" data-tags="map" d="M504.148 469.003c-27.854 0-54.568 11.064-74.264 30.761-19.697 19.695-30.761 46.409-30.761 74.264s11.064 54.568 30.761 74.265c19.695 19.695 46.409 30.761 74.264 30.761s54.568-11.066 74.265-30.761c19.695-19.697 30.761-46.411 30.761-74.265 0-13.791-2.716-27.448-7.995-40.191-5.278-12.742-13.014-24.321-22.766-34.072-9.753-9.753-21.331-17.488-34.072-22.767-12.743-5.278-26.4-7.994-40.193-7.994zM504.148 868.1c-77.993 0-152.79-30.982-207.94-86.131s-86.131-129.949-86.131-207.941c0-220.554 294.071-546.132 294.071-546.132s294.072 325.578 294.072 546.132c0 77.993-30.983 152.792-86.131 207.941s-129.949 86.131-207.941 86.131z" />
<glyph unicode="&#xe950;" glyph-name="minister" data-tags="minister" d="M504.144 778.831c92.842 0 168.042-75.198 168.042-168.042 0-92.842-75.199-168.040-168.042-168.040s-168.042 75.198-168.042 168.040c0 92.844 75.199 168.042 168.042 168.042zM672.185 336.042c0-44.53-11.763-148.296-92.002-264.244l-34.028 202.91 39.489 78.979c-26.046 2.941-53.352 5.041-81.499 5.041s-55.454-2.1-81.499-5.041l39.489-78.979-34.028-202.91c-80.239 115.948-92.002 219.714-92.002 264.244-100.404-29.406-168.040-82.339-168.040-145.354v-168.042h672.163v168.042c0 63.015-67.215 115.948-168.040 145.354z" />
<glyph unicode="&#xe951;" glyph-name="news-pile" data-tags="news-pile" d="M168.067 658.051v-504.123h630.154v-84.020h-630.154c-84.021 0-84.021 84.020-84.021 84.020v504.123h84.021zM882.241 742.072v-420.103h-546.132v420.103h546.132zM894.844 826.092h-571.338c-39.49 0-71.418-29.407-71.418-65.115v-457.912c0-36.128 31.928-65.115 71.418-65.115h571.338c39.49 0 71.418 28.987 71.418 65.115v457.912c0 35.708-31.928 65.115-71.418 65.115zM378.118 700.062h126.031v-210.051h-126.031v210.051zM840.231 363.98h-462.114v84.020h462.114v-84.020zM840.231 616.042h-252.062v84.020h252.062v-84.020zM840.231 490.011h-252.062v84.020h252.062v-84.020z" />
<glyph unicode="&#xe952;" glyph-name="news1" data-tags="news1" d="M840.231 742.072v-588.145h-672.165v588.145h672.165zM840.231 826.092h-672.165c-46.632 0-84.021-37.389-84.021-84.020v-588.145c0-46.631 37.389-84.020 84.021-84.020h672.165c46.631 0 84.020 37.389 84.020 84.020v588.145c0 46.631-37.389 84.020-84.020 84.020zM756.21 321.969h-504.123v-84.020h504.123v84.020zM420.128 658.051h-168.042v-252.062h168.042v252.062zM504.148 574.031h252.062v84.020h-252.062v-84.020zM756.21 490.011h-252.062v-84.022h252.062v84.022z" />
<glyph unicode="&#xe953;" glyph-name="news2" data-tags="news2" d="M840.231 826.092h-672.165c-46.632 0-84.021-37.389-84.021-84.020v-588.145c0-46.631 37.389-84.020 84.021-84.020h672.165c46.631 0 84.020 37.389 84.020 84.020v588.145c0 46.631-37.389 84.020-84.020 84.020zM210.078 658.051h210.051v-252.062h-210.051v252.062zM798.221 237.949h-588.143v84.020h588.143v-84.020zM798.221 405.989h-294.072v84.022h294.072v-84.022zM798.221 574.031h-294.072v84.020h294.072v-84.020z" />
<glyph unicode="&#xe954;" glyph-name="palm" data-tags="palm" d="M961.008 545.674c-81.506-4.515-147.138-18.382-188.533-46.646-43.514-31.371-70.509-67.19-76.071-108.864-3.727-12.824-4.513-134.016-4.484-204.735l-190.039-99.768-192.525 96.070 2.521 187.205c-1.339 96.467 25.293 189.561 85.857 278.468 42.047 49.851 81.635 110.143 149.628 149.72 14.368 11.186 39.363 15.601 76.991 11.971 34.748-3.301 61.512-11.414 82.977-22.798-107.057-43.438-192.394-106.049-247.43-195.351-32.979-56.849-54.541-116.939-58.795-181.907l-2.291-184.065 57.813-32.875 3.212 188.808c6.87 89.173 36.708 158.452 83.891 210.92 34.063 40.369 88.538 80.042 152.77 111.154 27.352 13.019 61.056 16.88 94.956 8.895 33.11-8.079 61.935-19.429 86.933-33.688-98.781-18.909-187.649-56.232-231.884-98.299-53.076-53.024-91.747-107.555-97.701-165.485-3.504-24.207-3.964-145.696-4.517-219.787l60.892 29.212-0.228 164.343c6.574 50.307 30.657 93.324 65.928 131.757 20.19 21.95 80.297 59.044 129.996 76.085 59.68 24.207 119.984-8.899 160.13-50.341zM42.793 545.674c81.471-4.515 147.14-18.382 188.531-46.646 43.517-31.371 70.511-67.19 76.074-108.864 3.729-12.824 1.994-137.711 1.96-208.433l192.525-96.070 190.039 99.768v183.507c1.344 96.467-25.324 189.561-85.857 278.468-42.044 49.851-81.67 110.143-149.625 149.72-14.368 11.186-39.366 15.601-76.992 11.971-34.747-3.301-61.512-11.414-82.979-22.798 107.028-43.438 192.397-106.049 247.43-195.351 32.982-56.849 54.541-116.939 58.797-181.907l2.488-185.209-60.892-29.212-0.329 186.289c-6.87 89.173-36.708 158.452-83.894 210.92-34.060 40.369-88.537 80.042-152.768 111.154-27.352 13.019-61.089 16.88-94.953 8.895-33.113-8.079-61.937-19.429-86.935-33.688 98.777-18.909 187.65-56.232 231.885-98.299 53.073-53.024 91.747-107.555 97.701-165.485 3.501-24.207 1.081-148.182 1.634-222.306l-57.813 32.875 0.002 163.199c-6.544 50.307-30.625 93.324-65.9 131.757-20.187 21.95-80.296 59.044-129.994 76.085-59.68 24.207-119.985-8.899-160.13-50.341z" />
<glyph unicode="&#xe955;" glyph-name="profile" data-tags="profile" d="M210.078 778.831v-756.185h252.062v147.035h84.020v-147.035h252.062v756.185h-588.143zM294.098 694.811h84.020v-84.022h-84.020v84.022zM462.139 694.811h84.020v-84.022h-84.020v84.022zM630.179 694.811h84.022v-84.022h-84.022v84.022zM294.098 526.769h84.020v-84.020h-84.020v84.020zM462.139 526.769h84.020v-84.020h-84.020v84.020zM630.179 526.769h84.022v-84.020h-84.022v84.020zM294.098 358.728h84.020v-84.020h-84.020v84.020zM462.139 358.728h84.020v-84.020h-84.020v84.020zM630.179 358.728h84.022v-84.020h-84.022v84.020zM294.098 190.688h84.020v-84.022h-84.020v84.022zM630.179 190.688h84.022v-84.022h-84.022v84.022z" />
<glyph unicode="&#xe956;" glyph-name="shrimp" data-tags="shrimp" d="M722.867 829.040c-44.479 0.31-101.174-11.922-162.244-23.735-60.887-11.812-125.602-23.335-182.661-22.897-56.878 0.438-104.639 12.597-135.994 45.265l-23.571-22.714c51.644-49.293 120.917-56.768 183.263-54.945-15.313-2.697-31.355-4.721-47.58-5.851-66.903-4.63-137.142 4.758-168.771 23.973l-17.027-28.037c44.462-26.963 117.072-33.598 187.986-28.658 70.366 4.885 137.999 20.089 172.635 54.507 12.942 2.333 25.704 4.721 38.099 7.146 61.253 11.867 117.582 23.407 155.5 23.134 19.141-0.182 32.814-3.482 39.923-8.331 4.192-2.788 7.11-5.742 8.75-10.536h33.36c-3.099 16.023-11.485 29.514-23.699 37.808-16.042 10.683-35.73 13.709-57.971 13.873zM817.116 745.001c-81.852 0.438-244.279-15.421-381.731-53.231 2.005 0.202 4.011 0.31 6.016 0.31 32.996 0 60.158-27.216 60.158-60.213s-27.161-60.158-60.158-60.158c-32.996 0-60.158 27.161-60.158 60.158 0 23.699 14.037 44.298 34.090 54.16-50.861-15.149-97.348-33.378-133.807-55.072 94.247-49.766 141.098-114.847 182.114-177.374 133.807 37.189 218.392 78.022 318.839 174.822-43.934-10.755-64.351-11.848-102.452-10.39 51.225 19.141 176.829 78.807 216.387 101.904-53.595-4.157-135.811-22.569-183.937-33.616 27.161 24.481 93.518 51.808 117.399 58.48-4.011 0.183-8.205 0.183-12.761 0.219zM441.401 659.212c-15.313 0-27.344-12.031-27.344-27.344s12.031-27.344 27.344-27.344c15.313 0 27.344 12.031 27.344 27.344s-12.031 27.344-27.344 27.344zM212.771 613.085c-32.048-48.856-48.317-86.038-66.583-129.607 45.756-62.346 104.165-115.211 210.627-146.385 18.229 31.903 35.519 55.594 69.426 90.23-46.121 70.914-94.43 137.635-213.469 185.761zM129.384 439.775c-21.93-64.534-24.523-115.26-13.931-167.58 58.973-42.839 107.738-69.454 210.554-47.214-1.823 26.433 0.314 46.351 12.709 74.971-100.081 30.444-162.772 81.852-209.331 139.823zM457.807 413.294c-8.203-8.386-15.859-16.59-22.969-24.793 57.606-32.265 99.717-70.549 141.827-129.067l26.616 19.324c-42.658 59.064-87.503 100.628-145.474 134.536zM406.218 353.318c-6.927-9.479-13.126-18.777-18.413-27.891 15.678-6.563 39.559-19.506 61.616-34.636 27.346-18.96 52.684-42.658 61.253-59.43l29.168 15.313c-14.038 26.616-42.294 50.497-71.644 70.914-21.693 15.13-43.386 27.527-61.98 35.73zM369.576 288.603c-4.558-11.302-7.474-22.24-9.298-32.631 8.569-1.823 23.517-7.292 37.918-16.589 19.506-12.943 39.194-31.538 49.221-47.58l27.708 17.499c-13.854 21.876-35.912 42.294-58.882 57.424-15.677 10.208-30.991 18.958-46.668 21.876zM131.495 214.646c28.074-62.893 84.896-110.346 173.546-155.738 21.146 1.823 38.101 3.828 52.32 10.755 12.578 6.198 24.245 16.408 36.276 38.101-30.808 24.975-51.772 45.812-61.616 77.714-89.69-18.958-148.682-1.64-200.526 29.168zM806.178 89.717c-18.96 0.183-78.571-7.656-138.182-20.053-42.839-9.115-86.774-20.964-118.311-32.814 21.329 5.651 47.033 7.839 75.289 8.569 11.121 0.364 22.786 0.364 34.454 0.183 35.002-0.729 71.461-4.011 103.909-8.751 22.422-3.463 42.658-7.11 59.976-11.848 12.578 15.13 22.605 33.178 23.516 43.933 0.912 19.87-30.443 20.6-40.651 20.782zM425.362 85.156c-17.682-25.887-34.818-45.028-62.163-53.777 38.647-16.042 76.743-27.342 125.052-40.467 15.13 13.307 29.168 31.355 26.068 50.496-36.094 14.219-62.524 26.43-88.957 43.748zM551.392-5.908l-16.772-15.13c24.245-7.292 47.695-14.848 92.176-13.391 66.174 2.371 153.677-4.009 209.277 19.141-88.96 22.424-214.679 48.757-284.681 9.38z" />
<glyph unicode="&#xe957;" glyph-name="structure" data-tags="structure" d="M819.225 227.446c-5.46 0-10.922 0-16.384-1.681l-67.636 136.534c14.966 14.591 25.238 33.318 29.501 53.78s2.322 41.734-5.574 61.087c-7.894 19.354-21.384 35.912-38.745 47.555-17.359 11.644-37.798 17.841-58.7 17.802-5.46 0-10.502 0-16.384-1.681l-68.476 136.534c20.165 18.905 32.347 45.371 32.347 75.198 0 27.854-11.066 54.569-30.761 74.265-19.697 19.696-46.411 30.761-74.265 30.761s-54.568-11.065-74.264-30.761c-19.697-19.696-30.761-46.411-30.761-74.265 0-29.827 12.182-56.293 31.927-75.198l-68.057-136.534c-5.881 1.681-10.922 1.681-16.384 1.681-20.902 0.039-41.341-6.158-58.7-17.802-17.359-11.642-30.849-28.201-38.745-47.555-7.894-19.354-9.835-40.624-5.572-61.087s14.534-39.189 29.501-53.78l-67.638-136.534c-5.46 1.681-10.922 1.681-16.384 1.681-27.854 0-54.568-11.066-74.264-30.761-19.696-19.697-30.761-46.411-30.761-74.265s11.065-54.568 30.761-74.264c19.696-19.697 46.41-30.761 74.264-30.761 13.792 0 27.45 2.716 40.193 7.994 12.742 5.279 24.319 13.014 34.072 22.767 9.752 9.752 17.488 21.331 22.766 34.072s7.995 26.4 7.995 40.191c0 29.408-12.182 56.295-31.928 75.199l68.057 136.532c5.882-1.679 10.924-1.679 16.384-1.679 5.462 0 10.503 0 16.384 1.679l68.477-136.532c-19.744-18.905-32.347-45.792-32.347-75.199 0-27.854 11.064-54.568 30.761-74.264 19.695-19.697 46.409-30.761 74.264-30.761s54.568 11.064 74.265 30.761c19.695 19.695 30.761 46.409 30.761 74.264s-11.066 54.568-30.761 74.265c-19.697 19.695-46.411 30.761-74.265 30.761-5.46 0-10.922 0-16.384-1.681l-67.636 136.534c19.325 18.905 31.508 45.371 31.508 75.198s-12.182 56.295-31.508 75.199l67.636 136.532c5.462-1.679 10.924-1.679 16.384-1.679 5.462 0 10.924 0 16.384 1.679l67.638-136.532c-18.905-18.905-31.508-45.792-31.508-75.199 0-27.854 11.064-54.568 30.761-74.264 19.695-19.697 46.409-30.761 74.264-30.761 5.462 0 10.503 0 16.384 1.679l68.477-136.532c-19.744-18.905-32.347-45.792-32.347-75.199 0-27.854 11.064-54.568 30.761-74.264 19.695-19.697 46.409-30.761 74.264-30.761s54.568 11.064 74.265 30.761c19.695 19.695 30.761 46.409 30.761 74.264s-11.066 54.568-30.761 74.265c-19.697 19.695-46.411 30.761-74.265 30.761z" />
<glyph unicode="&#xe958;" glyph-name="technology" data-tags="technology" d="M775.411 666.643l21.518-54.828c26.104-5.901 52.046-12.636 77.824-20.151 23.101-6.68 38.994-28.221 38.994-52.657v-186.195c0-55.951-21.808-109.612-60.626-149.175-38.816-39.564-91.464-61.791-146.36-61.791h-29.6c-7.678 0.005-15.215 2.114-21.816 6.111s-12.026 9.73-15.703 16.6c-58.491 109.269-212.447 109.269-270.991 0-3.679-6.87-9.103-12.603-15.703-16.6-6.602-3.997-14.138-6.106-21.816-6.111h-29.601c-54.896 0-107.542 22.227-146.36 61.791-38.817 39.563-60.624 93.223-60.624 149.175v186.195c0 24.491 15.892 45.922 38.994 52.657 25.777 7.515 51.719 14.249 77.825 20.151l21.517 54.828c10.13 25.827 27.62 47.966 50.214 63.564 22.594 15.596 49.256 23.935 76.545 23.94h289.014c27.287-0.005 53.949-8.343 76.543-23.94s40.084-37.737 50.214-63.564zM283.563 646.048c6.089 15.486 16.592 28.759 30.151 38.104 13.559 9.347 29.556 14.338 45.926 14.331h289.014c16.375 0.002 32.376-4.997 45.937-14.353s24.058-22.641 30.139-38.138l8.356-21.375c-151.511 26.591-306.367 26.591-457.878 0l8.356 21.375v0.057z" />
<glyph unicode="&#xe959;" glyph-name="tourism" data-tags="tourism" d="M733.94 551.136h64.276v-602.008h-64.276v436.908c-33.608 6.721-65.115 19.324-94.944 37.389-29.827 18.065-55.033 39.070-76.458 63.436l-26.046-128.972 93.682-92.423v-316.337h-84.020v252.062l-94.102 92.423-78.56-344.485h-90.742c0 0 131.493 662.922 132.753 668.384 4.621 20.165 13.863 35.709 29.406 45.792 15.544 11.343 31.089 16.803 47.052 16.803 16.384 0 31.508-3.781 45.371-11.343 14.284-7.141 25.206-17.644 33.189-31.087l44.53-68.477c12.184-22.686 28.568-42.43 49.152-58.393 20.586-15.965 44.111-28.147 69.738-36.549v76.879zM359.208 667.924l-48.311 10.082c-23.946 6.302-45.792 1.26-65.536-12.182-19.325-13.444-31.089-31.928-35.289-56.295l-34.028-167.2c-1.26-12.182 1.26-23.106 7.981-33.189 6.722-10.082 15.544-15.543 26.047-17.224l92.842-18.065 56.293 294.072zM546.154 873.354c-46.211 0-84.020-37.809-84.020-84.020 0-46.212 37.809-84.022 84.020-84.022s84.020 37.39 84.020 84.022c0 46.631-37.389 84.020-84.020 84.020z" />
<glyph unicode="&#xe95a;" glyph-name="menu" data-tags="menu" horiz-adv-x="1297" d="M54.833 925.867h1228.8v-136.533h-1228.8v136.533zM54.833 516.267h1024v-136.533h-1024v136.533zM54.833 106.667h1160.533v-136.533h-1160.533v136.533z" />
<glyph unicode="&#xe95b;" glyph-name="search" data-tags="svg.icon" d="M448 288.006c-141.385 0-256 114.617-256 256.002s114.615 256 256 256c141.385 0 256-114.615 256-256s-114.615-256.002-256-256.002zM448 160.006c212.077 0 384 171.924 384 384.002s-171.923 384-384 384c-212.077 0-384-171.923-384-384s171.923-384.002 384-384.002zM638.026 358.701c24.995 24.993 65.519 24.993 90.511 0l281.491-281.491c24.992-24.992 24.992-65.517 0-90.509s-65.517-24.992-90.509 0l-281.494 281.491c-24.993 24.992-24.993 65.515 0 90.509z" />
</font>
</defs>
</svg>
